<svg xmlns="http://www.w3.org/2000/svg" id="Layer_1" x="0" y="0" enable-background="new 0 0 600 1000" version="1.1" viewBox="0 0 600 1000" xml:space="preserve"><style>.st0{fill:#1E5F80;}
	.st1{fill:#292623;}
	.st2{fill:#EA5E0B;}
	.st3{fill:#DDDDDD;}
	.st4{fill:#E3E2E1;}</style><path d="M255.01 59.64c-24.82-6.08-55.09-2.92-82.81 11.93-14.09 7.55-25.99 17.37-35.45 28.35-9.45-10.98-21.36-20.81-35.45-28.35-27.72-14.85-57.99-18-82.81-11.93 8.7 24.03 28.48 46.77 56.2 61.62 13.53 7.25 27.6 11.82 41.34 13.91-4.66 13.18-7.25 27.84-7.25 43.29 0 31.32 10.83 59.39 27.78 78.4 16.95-19.01 28.59-47.08 28.59-78.4 0-15.46-2.79-30.12-7.64-43.3 13.73-2.09 27.79-6.67 41.31-13.91 27.72-14.83 47.5-37.58 56.19-61.61z" class="st0"/><path d="M136.56 260.56v-3.69 3.69c-1.05 0-2.05-.45-2.75-1.23-17.62-19.78-28.71-48.69-28.72-80.85.01-32.28 10.96-61.3 28.73-81.1.7-.77 1.7-1.22 2.75-1.22 1.04 0 2.05.45 2.74 1.22 17.72 19.75 29.52 48.75 29.53 81.1-.01 32.24-11.94 61.13-29.53 80.85-.69.78-1.69 1.23-2.75 1.23zm0-3.69 2.75-2.45-2.75 2.45zm-23.25-78.39c-.01 28.72 9.38 54.57 24.1 72.71 14.83-18.19 24.91-44.06 24.9-72.71.01-28.81-9.98-54.78-24.9-72.97-14.8 18.15-24.11 44.11-24.1 72.97z" class="st1"/><path d="M72.95 124.51c-28.46-15.25-48.86-38.6-57.93-63.61-.4-1.1-.25-2.33.4-3.3a3.7 3.7 0 0 1 2.19-1.54c8.14-1.99 16.81-3.02 25.77-3.02 19.4 0 40.15 4.83 59.66 15.28 28.41 15.23 48.24 39.39 57.33 64.2.29.79.3 1.64.04 2.43-.4 1.21-1.4 2.12-2.64 2.42-7.77 1.87-16 2.82-24.47 2.82-19.6.01-40.56-5.07-60.35-15.68zm3.48-6.5c18.75 10.04 38.54 14.81 56.88 14.81 6.42 0 12.65-.58 18.6-1.72-9.03-21.66-27.08-42.76-52.34-56.28-18.42-9.87-38-14.41-56.18-14.41-6.88 0-13.56.65-19.9 1.9 9.01 21.62 27.49 42.08 52.94 55.7z" class="st1"/><path d="m115.72 137.37.86-3.59-.86 3.59a3.682 3.682 0 0 1-2.59-4.85c9.09-24.81 28.92-48.97 57.33-64.2 19.51-10.45 40.26-15.28 59.66-15.28 8.96 0 17.63 1.03 25.77 3.02.9.22 1.68.77 2.19 1.54.65.97.8 2.2.4 3.3-9.06 25-29.47 48.36-57.93 63.61-19.8 10.6-40.75 15.68-60.36 15.68-8.47.01-16.69-.94-24.47-2.82zm24.48-4.55c18.33 0 38.12-4.77 56.88-14.81 25.45-13.62 43.93-34.08 52.94-55.69-6.34-1.25-13.02-1.9-19.9-1.9-18.18 0-37.76 4.54-56.18 14.41-25.26 13.52-43.31 34.62-52.34 56.28 5.95 1.13 12.18 1.71 18.6 1.71z" class="st1"/><path d="M136.75 136.45c-6.98-.22-13.74-1.11-20.16-2.66 4.28-11.69 11.07-23.28 20.11-33.8-.04-.05-.09-.1-.13-.15-8.68 9.67-15.71 21.71-20.53 35.34 7.02 1.07 13.97 1.48 20.71 1.27zM156.92 133.79c-6.42 1.55-13.19 2.44-20.16 2.66 6.76.21 13.71-.2 20.76-1.28-.75-2.04-1.57-4.04-2.42-6.01.64 1.54 1.25 3.08 1.82 4.63zM141.33 105.58c3.63 4.78 6.81 9.73 9.53 14.77a107.04 107.04 0 0 0-9.53-14.77z" class="st1"/><path d="M141.33 105.58c-1.45-1.92-2.98-3.8-4.58-5.65-.02.02-.04.04-.06.07 1.6 1.77 3.15 3.64 4.64 5.58z" class="st1"/><path d="M116.59 133.79c6.42 1.55 13.19 2.44 20.17 2.66 6.98-.22 13.74-1.11 20.16-2.66-.56-1.54-1.18-3.08-1.83-4.62-.57-1.33-1.15-2.66-1.77-3.95-.06-.14-.13-.27-.19-.41-.05-.1-.1-.21-.15-.31-.32-.67-.66-1.34-1-2.01-.1-.19-.2-.39-.3-.58-.27-.52-.54-1.04-.82-1.56-2.72-5.04-5.9-9.99-9.53-14.77-1.49-1.94-3.04-3.8-4.64-5.59-9.04 10.52-15.83 22.11-20.1 33.8zM153.32 125.22z" class="st1"/><path d="M89.03 89.63c.19 7.39-5.64 13.54-13.03 13.73-7.4.19-13.53-5.64-13.73-13.03-.19-7.39 5.64-13.54 13.03-13.73 7.39-.19 13.53 5.64 13.73 13.03" class="st2"/><path d="M58.72 90.44v-.47c0-9.15 7.29-16.68 16.48-16.92.15 0 .3-.01.47-.01 9.15 0 16.66 7.29 16.91 16.48l-3.55.1 3.55-.08v.43c0 9.15-7.28 16.68-16.5 16.93-.15 0-.29.01-.44.01-9.15.01-16.67-7.29-16.92-16.47zM75.4 80.16c-5.35.14-9.58 4.51-9.58 9.82v.27a9.836 9.836 0 0 0 9.83 9.58h.26c5.34-.14 9.58-4.52 9.57-9.83v-.27c-.15-5.34-4.52-9.56-9.82-9.56a.726.726 0 0 0-.26-.01z" class="st1"/><path d="M211.23 89.63c.19 7.39-5.64 13.54-13.03 13.73-7.4.19-13.53-5.64-13.73-13.03-.19-7.39 5.64-13.54 13.03-13.73 7.39-.19 13.54 5.64 13.73 13.03" class="st2"/><path d="M180.93 90.44c0-.15-.01-.3-.01-.47 0-9.15 7.29-16.68 16.48-16.92.15 0 .3-.01.46-.01 9.15 0 16.66 7.29 16.92 16.48l-3.55.1 3.55-.08c0 .15.01.29.01.43 0 9.15-7.29 16.68-16.5 16.93-.15 0-.29.01-.44.01-9.16.01-16.68-7.29-16.92-16.47zm16.67-10.28c-5.35.14-9.58 4.51-9.58 9.82 0 .08 0 .16.01.27.14 5.34 4.51 9.58 9.82 9.58h.26c5.34-.14 9.57-4.52 9.57-9.83v-.26c-.14-5.34-4.52-9.57-9.82-9.57a.713.713 0 0 0-.26-.01z" class="st1"/><path d="M150.13 193.85c.19 7.39-5.64 13.54-13.03 13.73-7.4.19-13.53-5.64-13.73-13.03-.19-7.39 5.64-13.54 13.03-13.73 7.39-.19 13.53 5.64 13.73 13.03" class="st2"/><path d="M119.82 194.66c0-.15-.01-.3-.01-.47 0-9.15 7.29-16.68 16.48-16.92.15 0 .3-.01.47-.01 9.14 0 16.67 7.29 16.92 16.48l-3.55.09 3.55-.08c0 .15.01.29.01.43 0 9.15-7.28 16.68-16.5 16.93h-.44c-9.16.02-16.68-7.27-16.93-16.45zm16.68-10.29c-5.35.13-9.58 4.51-9.58 9.82 0 .07 0 .16.01.26.14 5.34 4.51 9.58 9.82 9.57h.26c5.34-.14 9.58-4.52 9.57-9.83v-.27c-.15-5.33-4.53-9.56-9.82-9.56-.07.01-.15.01-.26.01z" class="st1"/><path d="M23.55 279.76V260.1h5.36v11.24c.78-.83 1.68-1.45 2.71-1.85 1.03-.4 2.14-.6 3.36-.6 1.37 0 2.66.28 3.87.85a9.82 9.82 0 0 1 3.15 2.34c.89.99 1.59 2.15 2.12 3.48.52 1.32.79 2.73.79 4.22 0 1.51-.26 2.92-.79 4.23-.52 1.31-1.26 2.46-2.21 3.44-.94.98-2.07 1.76-3.37 2.32-1.3.56-2.73.85-4.29.85-1.59 0-3.04-.28-4.34-.85-1.31-.57-2.43-1.34-3.37-2.32-.94-.98-1.67-2.13-2.2-3.45-.52-1.32-.79-2.73-.79-4.24m5.37.04c0 .8.14 1.56.42 2.27.28.71.67 1.33 1.15 1.86.48.52 1.05.94 1.7 1.25.65.31 1.34.46 2.06.46s1.41-.15 2.06-.44c.65-.3 1.22-.7 1.7-1.23.48-.52.86-1.14 1.15-1.86.28-.71.42-1.48.42-2.31 0-.86-.14-1.66-.42-2.38-.28-.72-.67-1.35-1.15-1.89-.48-.54-1.05-.95-1.7-1.25-.65-.29-1.34-.44-2.06-.44s-1.41.15-2.06.46c-.65.31-1.22.73-1.7 1.27s-.86 1.17-1.15 1.9c-.28.73-.42 1.51-.42 2.33M47.33 279.75c0-1.51.28-2.94.83-4.27.55-1.33 1.31-2.49 2.29-3.47.97-.98 2.1-1.76 3.39-2.34 1.29-.58 2.67-.87 4.16-.87 1.23 0 2.42.19 3.55.58 1.13.39 2.15.95 3.06 1.7.91.74 1.67 1.65 2.31 2.73.63 1.08 1.06 2.32 1.3 3.71l-14.69 6.16a5.9 5.9 0 0 0 1.93 1.63c.75.39 1.58.59 2.5.59.87 0 1.7-.19 2.5-.58.8-.39 1.43-1 1.89-1.84h5.7c-.62 2.13-1.79 3.85-3.53 5.15-1.73 1.31-3.91 1.96-6.52 1.96-1.49 0-2.87-.28-4.16-.85s-2.42-1.34-3.39-2.32c-.97-.99-1.73-2.13-2.29-3.45-.56-1.29-.83-2.7-.83-4.22m5.04-.29 9.78-4.11a5.034 5.034 0 0 0-1.77-1.37c-.7-.32-1.48-.48-2.35-.48-.77 0-1.5.15-2.18.44-.68.29-1.26.7-1.76 1.23-.5.52-.9 1.15-1.21 1.87-.31.72-.48 1.53-.51 2.42M70.79 290.11v-3.79c0-1.45.23-2.73.68-3.82a7.23 7.23 0 0 1 1.98-2.76 7.147 7.147 0 0 1-1.98-2.8c-.45-1.11-.68-2.39-.68-3.84v-3.78h5.32v4.07c0 1.19.33 2.15.99 2.89.66.73 1.5 1.1 2.52 1.1 1.05 0 1.91-.37 2.56-1.1.66-.74.99-1.7.99-2.89v-4.07h5.32v3.78c0 1.44-.26 2.7-.77 3.81a8.581 8.581 0 0 1-2.1 2.84c.89.77 1.59 1.72 2.1 2.83s.77 2.36.77 3.75v3.79h-5.32v-4.08c0-1.18-.33-2.14-.99-2.87-.66-.73-1.51-1.09-2.56-1.09-1.03 0-1.87.36-2.52 1.09-.66.73-.99 1.69-.99 2.87v4.08h-5.32zM92.87 281.35V264h5.32v5.32h3.75v4.69h-3.75v7.34c0 1.46.33 2.47.99 3.05.58.52 1.43.79 2.54.79.16 0 .32-.01.47-.02v4.91c-.49.05-.95.08-1.4.08-.97 0-1.85-.12-2.64-.36-1.16-.36-2.13-.92-2.91-1.71-.78-.78-1.37-1.74-1.78-2.88-.39-1.14-.59-2.43-.59-3.86M105.52 281.4v-21.33h5.36v21.28c0 1.48.33 2.5.99 3.07.58.51 1.41.77 2.5.77.16 0 .32-.01.47-.02v4.91c-.48.05-.95.08-1.4.08-.97 0-1.85-.12-2.64-.36-1.15-.35-2.12-.92-2.9-1.68-.78-.77-1.37-1.72-1.78-2.86-.39-1.14-.6-2.43-.6-3.86M116.46 279.71c0-1.51.26-2.92.79-4.25.52-1.33 1.26-2.48 2.21-3.46s2.07-1.75 3.37-2.33c1.3-.58 2.74-.86 4.33-.86 1.56 0 3 .29 4.3.87 1.31.58 2.43 1.36 3.37 2.34.94.98 1.67 2.14 2.19 3.47.53 1.33.79 2.76.79 4.27v10.37h-5.05v-2.21c-.77.87-1.71 1.54-2.79 1.99-1.09.45-2.27.67-3.54.67-1.36 0-2.65-.28-3.86-.85s-2.26-1.34-3.17-2.33c-.91-.99-1.62-2.14-2.15-3.44-.52-1.33-.79-2.74-.79-4.25m5.36.04c0 .83.14 1.6.42 2.32.28.72.67 1.34 1.15 1.86.49.53 1.05.94 1.7 1.23.64.3 1.33.44 2.05.44.72 0 1.41-.15 2.06-.46a5.55 5.55 0 0 0 1.7-1.25c.48-.53.86-1.15 1.15-1.86.28-.72.42-1.47.42-2.28 0-.83-.14-1.61-.42-2.34a6.15 6.15 0 0 0-1.15-1.9c-.48-.54-1.05-.96-1.7-1.27-.65-.31-1.34-.46-2.06-.46s-1.41.15-2.05.44c-.64.3-1.21.71-1.7 1.25s-.87 1.17-1.15 1.89c-.28.72-.42 1.52-.42 2.39M141.42 290.11v-12.02c0-1.31.22-2.54.66-3.68a8.624 8.624 0 0 1 1.89-2.96 8.73 8.73 0 0 1 2.95-1.95c1.14-.47 2.43-.7 3.86-.7 1.46 0 2.75.23 3.89.68 1.13.45 2.1 1.09 2.89 1.91.79.82 1.4 1.8 1.82 2.93.42 1.13.63 2.39.63 3.77v12.02h-5.32v-12.14c0-.3-.04-.68-.12-1.12-.08-.45-.25-.88-.52-1.31-.27-.43-.66-.79-1.17-1.08-.51-.3-1.21-.44-2.09-.44-1.18 0-2.15.36-2.91 1.08-.76.72-1.13 1.68-1.13 2.88v12.14h-5.33z" class="st2"/><path d="M163.21 284.46H168.87V290.12H163.21z" class="st2"/><path d="M171.08 279.74c0-1.51.27-2.93.8-4.26.54-1.33 1.28-2.49 2.22-3.47.94-.98 2.07-1.76 3.38-2.33 1.31-.58 2.75-.87 4.32-.87 2.54 0 4.69.66 6.45 1.97 1.76 1.31 2.95 3.16 3.57 5.54h-5.7c-.38-.71-.95-1.34-1.71-1.88-.76-.54-1.63-.82-2.6-.82-.72 0-1.41.17-2.05.5-.65.33-1.21.77-1.7 1.33s-.87 1.2-1.15 1.95c-.28.74-.42 1.54-.42 2.38 0 .81.14 1.58.42 2.32a6.6 6.6 0 0 0 1.15 1.94c.49.56 1.05.99 1.7 1.3.64.31 1.33.47 2.05.47 1 0 1.89-.27 2.67-.8s1.34-1.17 1.69-1.9h5.7c-.62 2.36-1.81 4.21-3.59 5.53-1.78 1.32-3.93 1.98-6.47 1.98-1.56 0-3-.28-4.32-.85-1.31-.57-2.44-1.34-3.38-2.33s-1.68-2.14-2.22-3.45c-.54-1.33-.81-2.74-.81-4.25M194.12 279.68c0-1.56.28-2.99.83-4.32.55-1.33 1.3-2.47 2.24-3.45.95-.97 2.05-1.73 3.31-2.28 1.26-.55 2.62-.82 4.08-.82s2.82.27 4.08.82c1.26.55 2.37 1.31 3.33 2.28.95.97 1.71 2.12 2.26 3.45.55 1.33.83 2.77.83 4.32 0 1.57-.28 3.02-.83 4.34-.55 1.32-1.31 2.47-2.26 3.45-.95.98-2.07 1.75-3.34 2.3-1.27.55-2.63.83-4.07.83-1.46 0-2.82-.28-4.08-.83-1.26-.56-2.36-1.32-3.31-2.3-.95-.98-1.69-2.13-2.24-3.45-.55-1.32-.83-2.77-.83-4.34m5.32.04c0 .89.14 1.7.41 2.42.27.72.63 1.34 1.09 1.87.45.53 1 .93 1.64 1.21.64.28 1.31.42 2.01.42.7 0 1.36-.14 1.97-.42.62-.28 1.17-.68 1.64-1.21.47-.52.85-1.15 1.12-1.88.27-.73.41-1.53.41-2.41 0-.89-.14-1.71-.41-2.47-.27-.75-.64-1.4-1.12-1.93-.47-.53-1.02-.95-1.64-1.25-.62-.3-1.28-.45-1.97-.45-.7 0-1.37.15-2.01.45-.64.3-1.18.72-1.64 1.25-.45.53-.82 1.17-1.09 1.93a7.23 7.23 0 0 0-.41 2.47M217.62 290.11v-12.02c0-1.31.22-2.54.66-3.68a8.726 8.726 0 0 1 1.87-2.96c.81-.83 1.79-1.48 2.95-1.95 1.16-.47 2.45-.7 3.88-.7 1.43 0 2.7.26 3.81.79 1.11.53 2.04 1.24 2.8 2.15.78-.92 1.73-1.64 2.86-2.16 1.13-.52 2.39-.78 3.77-.78 1.46 0 2.75.23 3.89.68 1.14.45 2.1 1.09 2.9 1.91.79.82 1.4 1.8 1.82 2.93.42 1.13.63 2.39.63 3.77v12.02h-5.32v-12.14c0-.3-.04-.68-.12-1.12-.08-.45-.25-.88-.52-1.31-.27-.43-.66-.79-1.18-1.08-.51-.3-1.21-.44-2.09-.44-1.18 0-2.16.36-2.91 1.08-.76.72-1.14 1.68-1.14 2.88v12.14h-5.32v-12.14c0-.3-.04-.68-.12-1.12-.08-.45-.25-.88-.5-1.31-.26-.43-.64-.79-1.15-1.08-.51-.3-1.21-.44-2.09-.44-1.21 0-2.18.36-2.93 1.08-.74.72-1.12 1.68-1.12 2.88v12.14h-5.33z" class="st2"/><path d="M425.33 463.63c-13.65-3.34-30.29-1.61-45.53 6.56-7.75 4.15-14.29 9.55-19.49 15.59-5.2-6.04-11.74-11.44-19.49-15.59-15.24-8.16-31.89-9.9-45.53-6.56 4.78 13.21 15.66 25.71 30.9 33.88 7.44 3.98 15.17 6.5 22.73 7.65-2.56 7.24-3.99 15.31-3.99 23.8 0 17.22 5.95 32.65 15.28 43.1 9.32-10.45 15.72-25.89 15.72-43.1 0-8.5-1.53-16.56-4.2-23.81 7.55-1.15 15.28-3.67 22.71-7.65 15.23-8.16 26.11-20.67 30.89-33.87z" class="st0"/><path d="M360.21 574.09v-2.03 2.03c-.58 0-1.13-.25-1.51-.68-9.69-10.88-15.79-26.77-15.79-44.45 0-17.75 6.03-33.71 15.79-44.59.38-.43.94-.67 1.51-.67.57 0 1.13.25 1.51.67 9.74 10.86 16.23 26.8 16.24 44.59-.01 17.72-6.57 33.61-16.23 44.45-.4.43-.94.68-1.52.68zm0-2.03 1.51-1.35-1.51 1.35zm-13.25-43.1c0 15.79 5.16 30 13.25 39.98 8.15-10 13.69-24.22 13.69-39.98.01-15.84-5.49-30.12-13.69-40.12-8.14 9.98-13.26 24.25-13.25 40.12z" class="st1"/><path d="M325.23 499.29c-15.64-8.39-26.86-21.23-31.85-34.98-.22-.61-.14-1.28.22-1.82.28-.42.71-.72 1.21-.85 4.48-1.09 9.25-1.66 14.17-1.66 10.67 0 22.07 2.65 32.8 8.4 15.62 8.37 26.52 21.66 31.53 35.3.15.43.16.9.02 1.34-.22.67-.77 1.17-1.45 1.33-4.27 1.03-8.8 1.55-13.46 1.55-10.79.02-22.3-2.78-33.19-8.61zm1.91-3.57c10.31 5.52 21.19 8.14 31.27 8.14 3.53 0 6.96-.32 10.23-.95-4.97-11.91-14.89-23.51-28.78-30.94-10.13-5.43-20.89-7.92-30.89-7.92-3.78 0-7.46.36-10.94 1.04 4.96 11.89 15.12 23.14 29.11 30.63z" class="st1"/><path d="m348.75 506.36.47-1.97-.47 1.97c-.68-.17-1.23-.67-1.45-1.33-.14-.44-.14-.91.02-1.34 5-13.64 15.9-26.93 31.52-35.3 10.73-5.75 22.13-8.4 32.8-8.4 4.92 0 9.69.57 14.17 1.66.5.12.92.42 1.21.85.36.54.44 1.21.22 1.82-4.98 13.75-16.2 26.59-31.85 34.98-10.89 5.83-22.41 8.62-33.19 8.62-4.66 0-9.18-.53-13.45-1.56zm13.45-2.5c10.08 0 20.96-2.62 31.27-8.14 13.99-7.49 24.16-18.74 29.11-30.62-3.49-.69-7.16-1.04-10.94-1.04-10 0-20.76 2.5-30.89 7.92-13.89 7.43-23.81 19.03-28.78 30.94 3.28.62 6.71.94 10.23.94z" class="st1"/><path d="M360.31 505.85c-3.84-.12-7.56-.61-11.09-1.46 2.35-6.42 6.09-12.79 11.06-18.58a.572.572 0 0 1-.07-.08c-4.77 5.32-8.64 11.93-11.29 19.43 3.86.58 7.68.81 11.39.69zM371.4 504.39c-3.53.85-7.25 1.34-11.09 1.46 3.71.12 7.54-.11 11.41-.7-.41-1.12-.86-2.22-1.33-3.3.36.84.7 1.69 1.01 2.54zM362.83 488.88c1.99 2.63 3.75 5.35 5.24 8.12a59.747 59.747 0 0 0-5.24-8.12zM362.83 488.88c-.8-1.05-1.64-2.09-2.52-3.11-.01.01-.02.03-.03.04.88.98 1.73 2 2.55 3.07z" class="st1"/><path d="M349.22 504.39c3.53.85 7.25 1.34 11.09 1.46 3.84-.12 7.56-.61 11.08-1.46-.31-.85-.65-1.7-1.01-2.54-.32-.73-.63-1.46-.97-2.17-.03-.08-.07-.15-.1-.23-.03-.06-.06-.11-.08-.17-.18-.37-.36-.74-.55-1.11-.06-.11-.11-.21-.17-.32-.15-.29-.3-.57-.45-.86a61.8 61.8 0 0 0-5.24-8.12c-.82-1.07-1.67-2.09-2.55-3.07-4.96 5.79-8.7 12.16-11.05 18.59zM369.42 499.68z" class="st1"/><path d="M334.07 480.11c.1 4.06-3.1 7.45-7.16 7.55-4.07.11-7.44-3.1-7.55-7.16-.11-4.06 3.1-7.44 7.17-7.55 4.05-.1 7.43 3.1 7.54 7.16" class="st2"/><path d="M317.41 480.56v-.26c0-5.03 4.01-9.17 9.06-9.3h.26c5.03 0 9.16 4.01 9.3 9.06l-1.95.05 1.95-.04v.24c0 5.03-4 9.18-9.07 9.31h-.24c-5.04 0-9.18-4.01-9.31-9.06zm9.17-5.66a5.41 5.41 0 0 0-5.27 5.4v.14a5.41 5.41 0 0 0 5.4 5.27c.05 0 .1 0 .14-.01 2.94-.07 5.26-2.48 5.26-5.4v-.14a5.407 5.407 0 0 0-5.4-5.26h-.13z" class="st1"/><path d="M401.26 480.11c.1 4.06-3.1 7.45-7.16 7.55-4.07.11-7.44-3.1-7.55-7.16-.11-4.06 3.1-7.44 7.17-7.55 4.05-.1 7.43 3.1 7.54 7.16" class="st2"/><path d="M384.6 480.56v-.26c0-5.03 4.01-9.17 9.06-9.3h.26c5.03 0 9.16 4.01 9.3 9.06l-1.95.05 1.95-.04v.24c0 5.03-4.01 9.18-9.07 9.31h-.24c-5.04 0-9.18-4.01-9.31-9.06zm9.16-5.66a5.41 5.41 0 0 0-5.27 5.4v.14a5.41 5.41 0 0 0 5.4 5.27c.05 0 .1 0 .14-.01a5.387 5.387 0 0 0 5.26-5.4v-.14a5.407 5.407 0 0 0-5.4-5.26h-.13z" class="st1"/><path d="M367.67 537.41c.1 4.06-3.1 7.45-7.16 7.55-4.07.11-7.44-3.1-7.55-7.16-.11-4.06 3.1-7.44 7.16-7.55 4.06-.1 7.44 3.1 7.55 7.16" class="st2"/><path d="M351 537.86v-.25c0-5.03 4.01-9.17 9.06-9.3.08 0 .16-.01.26-.01 5.03 0 9.16 4.01 9.3 9.07l-1.95.05 1.95-.04v.24c0 5.03-4.01 9.17-9.07 9.31h-.24c-5.04-.01-9.17-4.03-9.31-9.07zm9.17-5.66a5.403 5.403 0 0 0-5.27 5.4v.15a5.4 5.4 0 0 0 5.4 5.26h.14a5.403 5.403 0 0 0 5.26-5.41v-.14a5.407 5.407 0 0 0-5.4-5.26h-.13z" class="st1"/><path d="M64.9 525.07V485.4h10.82v22.67c1.57-1.69 3.39-2.93 5.46-3.73 2.07-.8 4.33-1.2 6.77-1.2 2.75 0 5.36.57 7.81 1.71 2.45 1.14 4.57 2.72 6.36 4.72 1.79 2 3.21 4.34 4.27 7.01 1.06 2.67 1.59 5.51 1.59 8.51 0 3.04-.53 5.89-1.59 8.53-1.06 2.65-2.54 4.96-4.45 6.95a20.76 20.76 0 0 1-6.79 4.68c-2.62 1.14-5.51 1.71-8.66 1.71-3.2 0-6.12-.57-8.76-1.71-2.64-1.14-4.9-2.7-6.79-4.69-1.89-1.98-3.37-4.3-4.43-6.95-1.08-2.65-1.61-5.5-1.61-8.54m10.81.1c0 1.61.29 3.14.86 4.58.57 1.44 1.34 2.69 2.31 3.75s2.11 1.9 3.42 2.52c1.32.62 2.7.93 4.16.93s2.85-.3 4.16-.89a10.3 10.3 0 0 0 3.42-2.48c.97-1.06 1.74-2.31 2.31-3.75.57-1.44.86-2.99.86-4.66 0-1.74-.29-3.34-.86-4.8-.57-1.45-1.34-2.72-2.31-3.81-.97-1.08-2.11-1.92-3.42-2.52-1.31-.59-2.7-.89-4.16-.89s-2.85.31-4.16.93c-1.31.62-2.45 1.47-3.42 2.56-.97 1.08-1.74 2.35-2.31 3.83-.57 1.47-.86 3.03-.86 4.7M111.22 525.07c0-3.05.56-5.92 1.67-8.62 1.11-2.69 2.65-5.03 4.61-7.01 1.96-1.98 4.24-3.55 6.84-4.72 2.6-1.17 5.39-1.75 8.39-1.75 2.49 0 4.88.39 7.16 1.18 2.28.78 4.34 1.92 6.17 3.42s3.38 3.34 4.65 5.52c1.27 2.18 2.15 4.67 2.62 7.49L123.7 533c1.09 1.4 2.39 2.5 3.9 3.3 1.51.79 3.19 1.19 5.05 1.19 1.75 0 3.43-.39 5.05-1.17 1.62-.78 2.89-2.02 3.82-3.72h11.49c-1.25 4.29-3.62 7.76-7.12 10.4-3.5 2.64-7.89 3.95-13.16 3.95-3 0-5.79-.57-8.39-1.71-2.6-1.14-4.88-2.7-6.84-4.69-1.96-1.99-3.5-4.3-4.61-6.95-1.11-2.64-1.67-5.49-1.67-8.53m10.19-.6 19.73-8.3a9.998 9.998 0 0 0-3.58-2.76c-1.41-.65-2.98-.97-4.73-.97-1.56 0-3.03.3-4.39.89-1.36.59-2.55 1.42-3.56 2.48-1.01 1.06-1.82 2.32-2.44 3.77-.65 1.46-.98 3.09-1.03 4.89M158.56 545.97v-7.66c0-2.93.46-5.5 1.37-7.71.91-2.21 2.25-4.06 4-5.57-1.75-1.51-3.09-3.4-4-5.64-.92-2.25-1.37-4.83-1.37-7.76v-7.62h10.74v8.21c0 2.4.66 4.35 1.99 5.83 1.33 1.48 3.02 2.22 5.09 2.22 2.12 0 3.85-.74 5.17-2.22 1.33-1.48 1.99-3.43 1.99-5.83v-8.21h10.74v7.62c0 2.9-.51 5.46-1.54 7.68-1.03 2.22-2.44 4.13-4.24 5.72 1.8 1.56 3.21 3.46 4.24 5.71 1.03 2.24 1.54 4.77 1.54 7.57v7.66h-10.74v-8.23c0-2.39-.66-4.32-1.99-5.79-1.32-1.47-3.05-2.21-5.17-2.21-2.07 0-3.77.74-5.09 2.21-1.33 1.47-1.99 3.4-1.99 5.79v8.23h-10.74zM203.1 528.28v-35.01h10.74v10.74h7.56v9.46h-7.56v14.81c0 2.94.66 4.99 1.99 6.15 1.17 1.06 2.88 1.59 5.13 1.59.32 0 .64-.01.95-.04v9.9c-.98.11-1.92.16-2.82.16-1.96 0-3.74-.24-5.33-.71-2.34-.72-4.29-1.86-5.87-3.45-1.58-1.58-2.77-3.52-3.58-5.81-.81-2.3-1.21-4.89-1.21-7.79M228.63 528.39v-43.03h10.81v42.93c0 2.99.66 5.05 1.99 6.19 1.17 1.03 2.85 1.55 5.05 1.55.32 0 .64-.01.95-.04v9.9c-.98.11-1.92.16-2.82.16-1.96 0-3.74-.24-5.33-.71-2.33-.72-4.27-1.85-5.85-3.4-1.57-1.55-2.77-3.47-3.58-5.76-.81-2.31-1.22-4.9-1.22-7.79M250.7 524.97c0-3.04.53-5.9 1.59-8.58 1.06-2.68 2.54-5.01 4.45-6.97 1.91-1.97 4.17-3.53 6.79-4.7 2.62-1.16 5.54-1.74 8.74-1.74 3.15 0 6.05.58 8.68 1.75 2.64 1.17 4.9 2.74 6.8 4.71 1.89 1.97 3.37 4.31 4.43 7 1.06 2.69 1.59 5.56 1.59 8.61v20.92h-10.18v-4.46c-1.56 1.76-3.44 3.1-5.64 4.01-2.2.91-4.58 1.36-7.15 1.36-2.75 0-5.35-.57-7.79-1.71a20.275 20.275 0 0 1-6.4-4.71c-1.83-2-3.27-4.31-4.33-6.95-1.05-2.64-1.58-5.48-1.58-8.54m10.81.08c0 1.67.29 3.23.86 4.67.57 1.44 1.35 2.7 2.33 3.76.98 1.06 2.12 1.89 3.43 2.49 1.3.6 2.68.89 4.14.89 1.46 0 2.85-.31 4.17-.93 1.32-.62 2.46-1.46 3.42-2.53.97-1.06 1.74-2.31 2.31-3.76.57-1.44.86-2.98.86-4.59 0-1.67-.29-3.24-.86-4.71-.57-1.47-1.34-2.75-2.31-3.84-.97-1.09-2.11-1.94-3.42-2.56-1.31-.62-2.7-.94-4.17-.94-1.46 0-2.84.3-4.14.89-1.3.59-2.44 1.44-3.43 2.53-.98 1.09-1.76 2.36-2.33 3.82-.57 1.45-.86 3.06-.86 4.81M298.75 545.97v-24.26c0-2.65.44-5.12 1.33-7.42.89-2.29 2.16-4.28 3.82-5.97 1.66-1.68 3.64-2.99 5.94-3.94 2.31-.94 4.91-1.41 7.8-1.41 2.94 0 5.55.46 7.84 1.37 2.29.92 4.23 2.2 5.83 3.86 1.6 1.66 2.82 3.63 3.67 5.91.84 2.28 1.27 4.81 1.27 7.6v24.26h-10.74v-24.5c0-.61-.08-1.37-.24-2.27-.16-.9-.51-1.79-1.05-2.65-.55-.86-1.33-1.59-2.37-2.18-1.03-.6-2.44-.9-4.21-.9-2.38 0-4.34.73-5.87 2.19-1.52 1.46-2.29 3.39-2.29 5.81v24.5h-10.73zM383.87 525.03c0-3.05.54-5.91 1.62-8.6 1.08-2.68 2.57-5.02 4.48-6.99 1.9-1.97 4.17-3.54 6.83-4.71 2.65-1.17 5.55-1.75 8.71-1.75 5.12 0 9.45 1.33 13.01 3.98 3.55 2.65 5.95 6.37 7.2 11.18h-11.49c-.77-1.44-1.92-2.71-3.46-3.8-1.54-1.1-3.29-1.65-5.25-1.65-1.46 0-2.83.34-4.14 1-1.3.67-2.44 1.56-3.42 2.69-.98 1.12-1.76 2.43-2.33 3.93-.57 1.5-.86 3.1-.86 4.81 0 1.63.28 3.19.86 4.67.57 1.48 1.34 2.79 2.33 3.91.98 1.13 2.12 2 3.42 2.63 1.3.63 2.68.94 4.14.94 2.01 0 3.81-.54 5.39-1.61 1.58-1.08 2.71-2.36 3.4-3.84h11.49c-1.25 4.77-3.66 8.49-7.24 11.16-3.58 2.66-7.93 4-13.04 4-3.15 0-6.06-.57-8.71-1.71-2.65-1.14-4.93-2.71-6.83-4.7-1.91-1.99-3.39-4.31-4.48-6.97-1.09-2.67-1.63-5.52-1.63-8.57M428.94 524.91c0-3.14.55-6.04 1.67-8.71 1.11-2.67 2.62-4.99 4.53-6.95 1.91-1.96 4.13-3.5 6.67-4.6 2.54-1.11 5.29-1.66 8.23-1.66 2.95 0 5.69.55 8.24 1.66 2.55 1.11 4.78 2.64 6.71 4.6 1.92 1.96 3.44 4.28 4.56 6.95 1.12 2.68 1.67 5.58 1.67 8.71 0 3.17-.56 6.1-1.67 8.76-1.11 2.67-2.63 4.99-4.56 6.97a21.152 21.152 0 0 1-6.73 4.64c-2.56 1.12-5.3 1.68-8.22 1.68-2.94 0-5.68-.56-8.23-1.68a20.896 20.896 0 0 1-6.67-4.64c-1.91-1.97-3.42-4.3-4.53-6.97-1.11-2.67-1.67-5.59-1.67-8.76m10.74.08c0 1.8.27 3.43.82 4.89.54 1.46 1.28 2.71 2.19 3.77a9.178 9.178 0 0 0 3.31 2.44c1.29.57 2.64.86 4.04.86 1.41 0 2.74-.28 3.98-.86 1.25-.57 2.35-1.38 3.31-2.44s1.71-2.32 2.25-3.79c.54-1.47.82-3.09.82-4.87 0-1.8-.27-3.46-.82-4.98-.54-1.52-1.3-2.82-2.25-3.89-.95-1.07-2.06-1.91-3.31-2.52a8.973 8.973 0 0 0-3.98-.92c-1.41 0-2.76.31-4.04.92a9.886 9.886 0 0 0-3.31 2.52c-.92 1.07-1.65 2.37-2.19 3.89-.55 1.52-.82 3.18-.82 4.98M475.27 545.97v-24.26c0-2.65.44-5.12 1.33-7.42.89-2.29 2.15-4.28 3.78-5.97 1.63-1.68 3.61-2.99 5.95-3.94 2.33-.94 4.94-1.41 7.83-1.41s5.45.53 7.69 1.59c2.23 1.06 4.12 2.51 5.66 4.34 1.57-1.86 3.49-3.31 5.77-4.36 2.28-1.05 4.81-1.57 7.6-1.57 2.94 0 5.55.46 7.85 1.37 2.29.92 4.24 2.2 5.84 3.86 1.6 1.66 2.83 3.63 3.67 5.91.85 2.28 1.27 4.81 1.27 7.6v24.26h-10.74v-24.5c0-.61-.08-1.37-.24-2.27-.16-.9-.51-1.79-1.06-2.65-.54-.86-1.34-1.59-2.37-2.18-1.04-.6-2.45-.9-4.23-.9-2.39 0-4.35.73-5.88 2.19-1.53 1.46-2.29 3.39-2.29 5.81v24.5h-10.74v-24.5c0-.61-.08-1.37-.24-2.27-.16-.9-.5-1.79-1.01-2.65-.52-.86-1.29-1.59-2.33-2.18-1.03-.6-2.44-.9-4.22-.9-2.44 0-4.41.73-5.9 2.19-1.5 1.46-2.25 3.39-2.25 5.81v24.5h-10.74z" class="st2"/><path d="M64.64 584.89v-17.11h4.3v17.06c0 1.19.26 2.01.79 2.46.46.41 1.13.62 2.01.62.13 0 .25 0 .38-.02v3.94c-.39.04-.77.07-1.12.07-.78 0-1.49-.1-2.12-.29-.92-.28-1.7-.73-2.32-1.35-.63-.62-1.1-1.38-1.43-2.29-.33-.92-.49-1.94-.49-3.09M74.27 584.83v-9.63h4.27v9.74c0 .24.03.54.1.89.06.35.2.7.42 1.04.22.34.53.63.94.87.41.24.98.35 1.69.35.95 0 1.72-.29 2.32-.88.6-.59.9-1.35.9-2.28v-9.74h4.27v9.63c0 1.05-.18 2.03-.54 2.94-.36.91-.86 1.7-1.52 2.36-.66.67-1.45 1.19-2.37 1.57-.93.38-1.95.57-3.06.57-1.17 0-2.21-.18-3.13-.55-.92-.37-1.69-.88-2.33-1.54a6.506 6.506 0 0 1-1.45-2.35c-.35-.9-.51-1.9-.51-2.99M91.96 583.53c0-1.21.21-2.34.63-3.41a8.219 8.219 0 0 1 1.77-2.77c.76-.78 1.66-1.41 2.7-1.87 1.04-.46 2.2-.69 3.48-.69 1.25 0 2.4.23 3.45.69 1.05.46 1.95 1.09 2.7 1.87.75.79 1.34 1.71 1.76 2.78.42 1.07.63 2.21.63 3.43v7.48c0 1.38-.2 2.63-.6 3.74-.4 1.11-.97 2.06-1.71 2.83s-1.65 1.37-2.72 1.79c-1.07.42-2.27.63-3.61.63-1.01 0-1.97-.14-2.88-.42-.91-.28-1.71-.67-2.42-1.18-.71-.5-1.32-1.12-1.82-1.83-.5-.72-.82-1.52-.97-2.4H97c.13.33.33.61.6.85.27.23.57.43.89.58.33.15.66.26.99.32.33.06.65.1.96.1 1.51 0 2.62-.45 3.32-1.36.7-.91 1.05-2.11 1.05-3.6v-.74a6.05 6.05 0 0 1-2.19 1.42c-.83.32-1.73.48-2.68.48-1.09 0-2.13-.23-3.1-.68a8.088 8.088 0 0 1-2.54-1.87c-.73-.79-1.3-1.71-1.72-2.76-.41-1.07-.62-2.2-.62-3.41m4.3.03c0 .66.11 1.28.34 1.86.23.57.54 1.07.93 1.49.39.42.85.75 1.36.99a3.9 3.9 0 0 0 3.3-.01c.52-.25.98-.58 1.36-1 .39-.42.69-.92.92-1.49.23-.58.34-1.18.34-1.83 0-.67-.11-1.29-.34-1.88-.23-.59-.53-1.09-.92-1.52-.38-.43-.84-.77-1.36-1.02-.52-.25-1.07-.37-1.65-.37-.58 0-1.13.12-1.65.35-.52.24-.97.57-1.36 1-.39.43-.7.94-.93 1.52-.23.58-.34 1.21-.34 1.91M111.77 583.53c0-1.21.21-2.34.63-3.41a8.219 8.219 0 0 1 1.77-2.77c.76-.78 1.66-1.41 2.7-1.87 1.04-.46 2.2-.69 3.48-.69 1.25 0 2.4.23 3.45.69 1.05.46 1.95 1.09 2.7 1.87.75.79 1.34 1.71 1.76 2.78.42 1.07.63 2.21.63 3.43v8.31h-4.05v-1.77a6.04 6.04 0 0 1-2.24 1.59c-.87.36-1.82.54-2.84.54-1.09 0-2.13-.23-3.09-.68a8.088 8.088 0 0 1-2.54-1.87c-.73-.79-1.3-1.71-1.72-2.76-.43-1.05-.64-2.18-.64-3.39m4.3.03c0 .66.11 1.28.34 1.86.23.57.54 1.07.93 1.49.39.42.85.75 1.36.99a3.9 3.9 0 0 0 3.3-.01c.52-.25.98-.58 1.36-1 .39-.42.69-.92.92-1.49.23-.58.34-1.18.34-1.83 0-.67-.11-1.29-.34-1.88-.23-.59-.53-1.09-.92-1.52-.38-.43-.84-.77-1.36-1.02-.52-.25-1.07-.37-1.65-.37-.58 0-1.13.12-1.65.35-.52.24-.97.57-1.36 1-.39.43-.7.94-.93 1.52-.23.58-.34 1.21-.34 1.91M132.52 591.87v-9.64c0-1.19.2-2.27.59-3.24.4-.97.97-1.79 1.73-2.46.76-.67 1.68-1.16 2.77-1.46.7-.19 1.45-.29 2.26-.29.46 0 .95.03 1.46.09v3.99c-.37-.06-.72-.1-1.06-.1-.89 0-1.63.23-2.23.7-.83.63-1.25 1.55-1.25 2.74v9.67h-4.27zM148.67 583.57c0-1.19.21-2.32.63-3.38.42-1.06.99-1.99 1.72-2.79s1.57-1.42 2.53-1.88c.96-.46 1.99-.68 3.08-.68 1.99 0 3.62.65 4.89 1.96v-8.99h4.27v15.75c0 1.21-.21 2.34-.63 3.39a8.514 8.514 0 0 1-1.76 2.76c-.75.79-1.65 1.41-2.7 1.86-1.05.45-2.2.68-3.45.68-1.28 0-2.43-.23-3.48-.68a8.247 8.247 0 0 1-2.7-1.86 8.48 8.48 0 0 1-1.77-2.76c-.42-1.04-.63-2.17-.63-3.38m4.3.04c0 .66.11 1.28.34 1.85.23.57.54 1.07.93 1.49.39.42.84.75 1.36.98.52.24 1.07.36 1.65.36.58 0 1.13-.12 1.65-.37s.98-.58 1.36-1c.39-.42.69-.92.92-1.49.23-.58.34-1.18.34-1.82 0-.66-.11-1.29-.34-1.87-.23-.58-.53-1.09-.92-1.52-.38-.43-.84-.77-1.36-1.02-.52-.25-1.07-.37-1.65-.37-.58 0-1.13.12-1.65.36s-.97.57-1.36 1c-.39.43-.7.93-.93 1.51-.23.58-.34 1.21-.34 1.91M168.25 583.57c0-1.21.22-2.35.66-3.43.44-1.07 1.06-2 1.84-2.78.78-.79 1.68-1.41 2.72-1.88 1.03-.47 2.14-.69 3.34-.69.99 0 1.94.15 2.85.46.91.31 1.72.77 2.45 1.36.73.6 1.34 1.33 1.85 2.19.51.87.85 1.86 1.04 2.98l-11.78 4.94c.43.56.95 1 1.55 1.31.6.32 1.27.48 2.01.48.69 0 1.36-.16 2.01-.47.64-.31 1.15-.8 1.52-1.48h4.57c-.5 1.71-1.44 3.09-2.83 4.13-1.39 1.05-3.14 1.57-5.23 1.57-1.19 0-2.3-.23-3.34-.68a8.66 8.66 0 0 1-2.72-1.86 8.836 8.836 0 0 1-1.84-2.76c-.45-1.05-.67-2.18-.67-3.39m4.05-.24 7.84-3.3c-.39-.47-.86-.84-1.42-1.1-.56-.26-1.19-.39-1.88-.39-.62 0-1.2.12-1.75.36-.54.24-1.01.57-1.42.99-.4.42-.72.92-.97 1.5-.24.58-.38 1.22-.4 1.94" class="st0"/><path d="M187.51 587.34H192.04999999999998V591.88H187.51z" class="st0"/><path d="M193.75 587.34H198.29V591.88H193.75z" class="st0"/><path d="M200 587.34H204.54V591.88H200z" class="st0"/><path d="M213.47 583.57V567.8h4.3v9.01c.62-.67 1.35-1.16 2.17-1.48.82-.32 1.72-.48 2.69-.48 1.09 0 2.13.23 3.1.68.97.45 1.82 1.08 2.53 1.88.71.8 1.27 1.73 1.7 2.79.42 1.06.63 2.19.63 3.38 0 1.21-.21 2.34-.63 3.39a8.48 8.48 0 0 1-1.77 2.76c-.76.79-1.66 1.41-2.7 1.86-1.04.45-2.19.68-3.44.68-1.27 0-2.44-.23-3.48-.68a8.19 8.19 0 0 1-2.7-1.86 8.622 8.622 0 0 1-1.76-2.76c-.43-1.06-.64-2.19-.64-3.4m4.3.04c0 .64.11 1.25.34 1.82.23.57.53 1.07.92 1.49.39.42.84.75 1.36 1 .52.25 1.07.37 1.65.37.58 0 1.13-.12 1.65-.36s.98-.56 1.36-.98a4.908 4.908 0 0 0 1.26-3.34c0-.69-.11-1.33-.34-1.91-.23-.58-.53-1.08-.92-1.51-.38-.43-.84-.76-1.36-1-.52-.24-1.07-.36-1.65-.36-.58 0-1.13.12-1.65.37s-.98.58-1.36 1.02c-.39.43-.69.94-.92 1.52-.23.58-.34 1.21-.34 1.87" class="st2"/><path d="M233.61 573.39v-2.4c0-.6.21-1.11.63-1.52.42-.41.93-.62 1.53-.62.58 0 1.08.2 1.5.62.42.41.63.91.63 1.52v2.4h-4.29zm.03 1.81h4.27v16.68h-4.27V575.2zM241.67 584.84v-13.91h4.27v4.27h3v3.76h-3v5.88c0 1.17.26 1.98.79 2.45.46.42 1.14.63 2.04.63.13 0 .25 0 .38-.02v3.94c-.39.04-.77.06-1.12.06-.78 0-1.48-.09-2.12-.29-.93-.28-1.71-.74-2.33-1.37-.63-.63-1.1-1.4-1.42-2.31-.33-.91-.49-1.93-.49-3.09M250.56 591.87v-4.16c.2.01.4.01.6.01.34 0 .65-.02.95-.06.46-.08.84-.26 1.14-.57.21-.19.41-.53.58-1.03.18-.5.27-1.34.27-2.54 0-.54.02-1.1.06-1.69.04-.58.14-1.17.29-1.74.15-.58.37-1.13.65-1.67s.67-1.03 1.16-1.49c1.19-1.17 2.77-1.76 4.74-1.76.29 0 .58.01.89.03v4.17c-.21-.02-.41-.03-.6-.03-.9 0-1.59.25-2.09.75-.11.1-.21.22-.3.36-.1.14-.18.34-.26.6-.08.26-.15.59-.2.97-.05.38-.08.88-.08 1.49 0 .56-.02 1.13-.06 1.73-.04.59-.14 1.19-.29 1.78-.15.59-.37 1.16-.65 1.71a5.63 5.63 0 0 1-1.13 1.51c-.69.67-1.52 1.12-2.47 1.38-.71.18-1.48.27-2.31.27-.29.01-.59.01-.89-.02M262.34 591.87v-4.54h4.54v5.09c0 1.47-.39 2.59-1.16 3.38-.78.79-1.78 1.25-3.01 1.38v-2.01c.66-.15 1.17-.46 1.5-.94.34-.48.51-1.07.51-1.78v-.58h-2.38z" class="st0"/><path d="M277.04 575.2 281.51 575.2 285.66 587.64 289.83 575.2 294.24 575.2 287.95 591.87 283.35 591.87z" class="st0"/><path d="M295.22 583.57c0-1.21.22-2.35.66-3.43.44-1.07 1.05-2 1.83-2.78.78-.79 1.69-1.41 2.72-1.88 1.03-.47 2.14-.69 3.34-.69.99 0 1.94.15 2.84.46.91.31 1.72.77 2.45 1.36.73.6 1.34 1.33 1.85 2.19.51.87.85 1.86 1.04 2.98l-11.78 4.94c.43.56.95 1 1.55 1.31.6.32 1.27.48 2.01.48.7 0 1.37-.16 2.01-.47.64-.31 1.15-.8 1.52-1.48h4.57c-.5 1.71-1.44 3.09-2.83 4.13-1.39 1.05-3.14 1.57-5.23 1.57-1.19 0-2.3-.23-3.34-.68a8.66 8.66 0 0 1-2.72-1.86 8.64 8.64 0 0 1-1.83-2.76 8.682 8.682 0 0 1-.66-3.39m4.05-.24 7.84-3.3c-.39-.47-.86-.84-1.42-1.1-.56-.26-1.19-.39-1.88-.39-.62 0-1.21.12-1.75.36s-1.02.57-1.42.99c-.4.42-.72.92-.97 1.5s-.38 1.22-.4 1.94" class="st2"/><path d="M313.95 583.55c0-1.21.22-2.35.65-3.42a8.548 8.548 0 0 1 1.78-2.78c.76-.79 1.66-1.41 2.71-1.87 1.05-.46 2.21-.69 3.46-.69 2.03 0 3.76.52 5.17 1.58 1.41 1.05 2.36 2.53 2.86 4.44h-4.57c-.31-.57-.76-1.07-1.38-1.51a3.49 3.49 0 0 0-2.09-.66c-.58 0-1.13.13-1.65.4s-.97.62-1.36 1.07c-.39.44-.7.96-.92 1.56-.23.6-.34 1.23-.34 1.91 0 .65.11 1.27.34 1.86.22.59.53 1.11.92 1.56.39.45.84.79 1.36 1.04.52.25 1.06.38 1.65.38.8 0 1.51-.22 2.14-.64.63-.43 1.08-.93 1.35-1.52h4.57c-.5 1.9-1.45 3.38-2.88 4.44-1.42 1.06-3.15 1.59-5.19 1.59-1.25 0-2.41-.23-3.46-.68a8.084 8.084 0 0 1-2.71-1.86 8.895 8.895 0 0 1-1.78-2.77 9.579 9.579 0 0 1-.63-3.43M333.19 584.84v-13.91h4.27v4.27h3v3.76h-3v5.88c0 1.17.26 1.98.79 2.45.46.42 1.14.63 2.04.63.13 0 .25 0 .38-.02v3.94c-.39.04-.77.06-1.12.06-.78 0-1.49-.09-2.12-.29-.93-.28-1.71-.74-2.33-1.37-.63-.63-1.1-1.4-1.42-2.31-.33-.91-.49-1.93-.49-3.09M342.72 583.5c0-1.25.22-2.4.66-3.47a8.674 8.674 0 0 1 1.8-2.76c.76-.78 1.64-1.39 2.65-1.83 1.01-.44 2.1-.66 3.27-.66s2.26.22 3.27.66c1.01.44 1.9 1.05 2.67 1.83a8.7 8.7 0 0 1 1.81 2.76c.44 1.06.67 2.22.67 3.47 0 1.26-.22 2.42-.67 3.48a8.859 8.859 0 0 1-1.81 2.77c-.76.79-1.66 1.4-2.68 1.85-1.02.45-2.11.67-3.27.67-1.17 0-2.26-.22-3.27-.67a8.332 8.332 0 0 1-2.65-1.85 8.72 8.72 0 0 1-1.8-2.77 9.332 9.332 0 0 1-.65-3.48m4.27.04c0 .71.11 1.36.32 1.94.22.58.51 1.08.87 1.5.36.42.8.75 1.31.97.51.23 1.05.34 1.61.34s1.09-.11 1.58-.34c.5-.22.93-.55 1.32-.97.38-.42.68-.92.89-1.5.22-.59.33-1.23.33-1.93 0-.72-.11-1.37-.33-1.98a4.83 4.83 0 0 0-.89-1.54c-.38-.43-.82-.76-1.32-1-.5-.24-1.02-.36-1.58-.36s-1.1.12-1.61.36-.95.58-1.31 1c-.36.42-.65.94-.87 1.54-.21.59-.32 1.25-.32 1.97M362.31 591.87v-9.64c0-1.19.2-2.27.59-3.24.4-.97.97-1.79 1.73-2.46.76-.67 1.68-1.16 2.77-1.46.69-.19 1.45-.29 2.26-.29.46 0 .95.03 1.45.09v3.99c-.37-.06-.72-.1-1.06-.1-.88 0-1.63.23-2.23.7-.83.63-1.25 1.55-1.25 2.74v9.67h-4.26zM372.59 583.57c0-1.21.22-2.35.66-3.43.44-1.07 1.05-2 1.83-2.78.78-.79 1.69-1.41 2.72-1.88 1.03-.47 2.14-.69 3.33-.69.99 0 1.94.15 2.85.46.9.31 1.72.77 2.45 1.36.73.6 1.34 1.33 1.85 2.19.5.87.85 1.86 1.04 2.98l-11.78 4.94c.43.56.95 1 1.55 1.31.6.32 1.27.48 2.01.48.7 0 1.37-.16 2.01-.47.64-.31 1.15-.8 1.52-1.48h4.57c-.5 1.71-1.44 3.09-2.83 4.13-1.39 1.05-3.14 1.57-5.23 1.57-1.19 0-2.3-.23-3.33-.68a8.66 8.66 0 0 1-2.72-1.86 8.64 8.64 0 0 1-1.83-2.76c-.45-1.05-.67-2.18-.67-3.39m4.04-.24 7.84-3.3c-.39-.47-.87-.84-1.42-1.1-.56-.26-1.19-.39-1.88-.39-.62 0-1.21.12-1.75.36s-1.01.57-1.42.99c-.4.42-.72.92-.97 1.5-.24.58-.38 1.22-.4 1.94M390.67 591.87v-4.16c.2.01.4.01.6.01.34 0 .65-.02.95-.06.46-.08.84-.26 1.14-.57.21-.19.4-.53.59-1.03.18-.5.27-1.34.27-2.54 0-.54.02-1.1.06-1.69.04-.58.14-1.17.29-1.74.15-.58.37-1.13.65-1.67s.67-1.03 1.16-1.49c1.19-1.17 2.77-1.76 4.74-1.76.28 0 .58.01.88.03v4.17c-.21-.02-.41-.03-.6-.03-.9 0-1.59.25-2.09.75-.11.1-.2.22-.3.36-.1.14-.18.34-.26.6-.08.26-.15.59-.2.97-.05.38-.08.88-.08 1.49 0 .56-.02 1.13-.06 1.73-.04.59-.14 1.19-.29 1.78-.15.59-.37 1.16-.65 1.71a5.63 5.63 0 0 1-1.13 1.51 5.65 5.65 0 0 1-2.47 1.38c-.71.18-1.48.27-2.31.27-.29.01-.59.01-.89-.02M411.37 584.95v-9.75h4.27v9.8c0 .24.03.55.1.91.06.37.2.72.42 1.08.22.35.53.66.94.91.41.26.96.38 1.66.38.97 0 1.75-.31 2.34-.93.59-.62.88-1.4.88-2.36v-9.8h4.27v17.36c0 1.12-.18 2.13-.54 3.06-.36.92-.86 1.71-1.5 2.37-.65.66-1.42 1.17-2.33 1.52-.91.35-1.91.53-3.03.53-.91 0-1.77-.14-2.59-.42a7.03 7.03 0 0 1-2.19-1.19 6.939 6.939 0 0 1-1.6-1.85c-.43-.72-.72-1.51-.87-2.37h4.44c.12.62.44 1.08.95 1.39.51.3 1.13.46 1.87.46.58 0 1.07-.09 1.47-.28.4-.18.72-.43.97-.74s.42-.65.53-1.03c.11-.38.16-.76.16-1.15v-1.92c-.5.42-1.07.75-1.71.99-.65.23-1.35.35-2.09.35-1.01 0-1.94-.18-2.78-.54-.84-.36-1.56-.86-2.16-1.49-.6-.64-1.06-1.41-1.38-2.3-.34-.9-.5-1.89-.5-2.99M436.57 599.29V583.5c0-1.19.21-2.31.63-3.37a8.604 8.604 0 0 1 1.76-2.78c.75-.8 1.65-1.42 2.7-1.87 1.05-.45 2.21-.68 3.48-.68 1.25 0 2.4.22 3.44.67 1.04.45 1.94 1.07 2.7 1.87.76.79 1.35 1.72 1.77 2.77.42 1.05.63 2.17.63 3.36 0 1.22-.21 2.35-.63 3.41a9.36 9.36 0 0 1-1.7 2.79c-.71.81-1.55 1.43-2.53 1.89-.98.45-2.01.68-3.1.68-1.99 0-3.61-.65-4.86-1.96v9.01h-4.29zm4.3-15.83c0 .66.11 1.29.34 1.87.23.59.53 1.09.92 1.52.39.43.84.78 1.36 1.02.52.25 1.07.37 1.66.37.58 0 1.13-.12 1.65-.37s.98-.58 1.36-1c.39-.42.69-.92.92-1.51.23-.59.34-1.22.34-1.91 0-.66-.12-1.28-.34-1.86-.22-.57-.53-1.07-.92-1.5a4.29 4.29 0 0 0-1.36-.99c-.52-.24-1.07-.35-1.65-.35-.58 0-1.13.12-1.66.37-.52.25-.98.58-1.36 1-.38.42-.69.92-.92 1.49-.22.6-.34 1.21-.34 1.85M456.71 573.39v-2.4c0-.6.21-1.11.63-1.52.42-.41.93-.62 1.53-.62.58 0 1.08.2 1.5.62.42.41.63.91.63 1.52v2.4h-4.29zm.04 1.81h4.27v16.68h-4.27V575.2z" class="st0"/><path d="M464.84 591.87v-3.04c0-1.17.18-2.19.55-3.07.36-.88.89-1.62 1.59-2.22-.7-.6-1.22-1.35-1.59-2.24-.36-.89-.55-1.92-.55-3.08v-3.03h4.27v3.26c0 .96.26 1.73.79 2.32.53.59 1.2.88 2.02.88.84 0 1.53-.29 2.06-.88.53-.59.79-1.36.79-2.32v-3.26h4.27v3.03c0 1.15-.2 2.17-.61 3.05-.41.88-.97 1.64-1.69 2.27.71.62 1.28 1.38 1.69 2.27.41.89.61 1.9.61 3.01v3.04h-4.27v-3.27c0-.95-.27-1.72-.79-2.3-.53-.59-1.21-.88-2.06-.88-.82 0-1.5.29-2.02.88-.53.58-.79 1.35-.79 2.3v3.27h-4.27z" class="st2"/><path d="M481.79 583.57c0-1.21.22-2.35.66-3.43.44-1.07 1.05-2 1.83-2.78.78-.79 1.68-1.41 2.72-1.88 1.03-.47 2.14-.69 3.33-.69.99 0 1.94.15 2.85.46.9.31 1.72.77 2.45 1.36.73.6 1.34 1.33 1.85 2.19.51.87.85 1.86 1.04 2.98l-11.78 4.94c.43.56.95 1 1.55 1.31.6.32 1.27.48 2.01.48.7 0 1.36-.16 2.01-.47.64-.31 1.15-.8 1.52-1.48h4.57c-.5 1.71-1.44 3.09-2.83 4.13-1.39 1.05-3.14 1.57-5.23 1.57-1.19 0-2.3-.23-3.33-.68a8.66 8.66 0 0 1-2.72-1.86 8.64 8.64 0 0 1-1.83-2.76c-.45-1.05-.67-2.18-.67-3.39m4.04-.24 7.84-3.3c-.39-.47-.87-.84-1.42-1.1-.56-.26-1.18-.39-1.88-.39-.62 0-1.21.12-1.75.36s-1.02.57-1.41.99c-.4.42-.73.92-.97 1.5-.25.58-.39 1.22-.41 1.94M501.23 584.89v-17.11h4.3v17.06c0 1.19.26 2.01.79 2.46.46.41 1.13.62 2.01.62.13 0 .25 0 .38-.02v3.94c-.39.04-.77.07-1.12.07-.78 0-1.49-.1-2.12-.29-.92-.28-1.7-.73-2.32-1.35-.62-.62-1.1-1.38-1.42-2.29-.34-.92-.5-1.94-.5-3.09M510 583.57c0-1.21.22-2.35.66-3.43.44-1.07 1.05-2 1.83-2.78.78-.79 1.69-1.41 2.72-1.88 1.03-.47 2.15-.69 3.34-.69.99 0 1.94.15 2.85.46.91.31 1.72.77 2.45 1.36.73.6 1.34 1.33 1.85 2.19.5.87.85 1.86 1.04 2.98l-11.78 4.94c.43.56.95 1 1.55 1.31.6.32 1.27.48 2.01.48.7 0 1.36-.16 2.01-.47.64-.31 1.15-.8 1.52-1.48h4.57c-.5 1.71-1.44 3.09-2.83 4.13-1.39 1.05-3.14 1.57-5.23 1.57-1.19 0-2.3-.23-3.34-.68a8.66 8.66 0 0 1-2.72-1.86 8.64 8.64 0 0 1-1.83-2.76c-.45-1.05-.67-2.18-.67-3.39m4.05-.24 7.84-3.3c-.39-.47-.87-.84-1.42-1.1-.56-.26-1.19-.39-1.88-.39-.62 0-1.21.12-1.75.36s-1.02.57-1.41.99c-.4.42-.72.92-.97 1.5s-.39 1.22-.41 1.94M528.09 591.87v-4.16c.2.01.4.01.6.01.33 0 .65-.02.95-.06.46-.08.84-.26 1.14-.57.21-.19.41-.53.59-1.03s.27-1.34.27-2.54c0-.54.02-1.1.06-1.69.04-.58.14-1.17.29-1.74.15-.58.37-1.13.65-1.67s.66-1.03 1.16-1.49c1.19-1.17 2.77-1.76 4.74-1.76.29 0 .58.01.89.03v4.17c-.21-.02-.41-.03-.6-.03-.9 0-1.59.25-2.09.75-.11.1-.21.22-.3.36-.09.14-.18.34-.26.6-.08.26-.15.59-.2.97-.05.38-.08.88-.08 1.49 0 .56-.02 1.13-.06 1.73-.04.59-.14 1.19-.29 1.78-.15.59-.37 1.16-.65 1.71a5.63 5.63 0 0 1-1.13 1.51 5.65 5.65 0 0 1-2.47 1.38c-.71.18-1.48.27-2.31.27-.3.01-.6.01-.9-.02" class="st0"/><g><path d="M425.33 815.98c-13.65-3.34-30.29-1.61-45.53 6.56-7.75 4.15-14.29 9.55-19.49 15.59-5.2-6.04-11.74-11.44-19.49-15.59-15.24-8.16-31.89-9.9-45.53-6.56 4.78 13.21 15.66 25.72 30.9 33.88 7.44 3.98 15.17 6.5 22.73 7.65-2.56 7.24-3.99 15.31-3.99 23.8 0 17.22 5.95 32.65 15.28 43.1 9.32-10.45 15.72-25.88 15.72-43.1 0-8.5-1.53-16.56-4.2-23.81 7.55-1.15 15.28-3.67 22.71-7.65 15.23-8.15 26.11-20.66 30.89-33.87z" class="st0"/><path d="M360.21 926.45v-2.03 2.03c-.58 0-1.13-.25-1.51-.68-9.7-10.88-15.79-26.77-15.8-44.45 0-17.75 6.03-33.7 15.79-44.59.38-.43.94-.67 1.51-.67.57 0 1.13.25 1.51.67 9.74 10.85 16.23 26.8 16.24 44.59-.01 17.72-6.57 33.61-16.23 44.45-.39.43-.93.68-1.51.68zm0-2.03 1.51-1.35-1.51 1.35zm-13.25-43.1c0 15.79 5.16 30 13.25 39.98 8.15-10 13.69-24.22 13.69-39.98.01-15.84-5.49-30.12-13.69-40.12-8.14 9.97-13.26 24.24-13.25 40.12z"/><path d="M325.23 851.65c-15.64-8.39-26.86-21.23-31.85-34.98-.22-.61-.14-1.28.22-1.81.28-.42.71-.72 1.21-.85 4.48-1.09 9.25-1.66 14.17-1.66 10.67 0 22.07 2.65 32.8 8.4 15.62 8.37 26.52 21.66 31.53 35.3.15.43.16.9.02 1.34-.22.66-.77 1.17-1.45 1.33-4.27 1.03-8.8 1.55-13.46 1.55-10.79 0-22.3-2.79-33.19-8.62zm1.91-3.58c10.31 5.52 21.19 8.14 31.27 8.14 3.53 0 6.96-.32 10.23-.95-4.97-11.91-14.89-23.51-28.78-30.94-10.13-5.43-20.89-7.92-30.89-7.92-3.78 0-7.46.36-10.94 1.05 4.96 11.89 15.12 23.13 29.11 30.62z"/><path d="m348.75 858.72.47-1.97-.47 1.97c-.68-.17-1.23-.67-1.45-1.33-.14-.44-.14-.91.02-1.34 5-13.64 15.9-26.92 31.52-35.3 10.73-5.74 22.13-8.4 32.8-8.4 4.92 0 9.69.56 14.17 1.66.5.12.92.42 1.21.85.36.54.44 1.21.22 1.81-4.98 13.75-16.2 26.59-31.85 34.98-10.89 5.83-22.41 8.62-33.19 8.62-4.66 0-9.18-.52-13.45-1.55zm13.45-2.51c10.08 0 20.96-2.62 31.27-8.14 13.99-7.49 24.16-18.74 29.11-30.62-3.49-.69-7.16-1.05-10.94-1.05-10 0-20.76 2.49-30.89 7.92-13.89 7.43-23.81 19.03-28.78 30.94 3.28.63 6.71.95 10.23.95z"/><path d="M360.31 858.21c-3.84-.12-7.56-.61-11.09-1.46 2.35-6.42 6.09-12.79 11.06-18.58-.02-.03-.05-.05-.07-.08-4.77 5.32-8.64 11.94-11.29 19.43 3.86.58 7.68.81 11.39.69zM371.4 856.75c-3.53.85-7.25 1.34-11.09 1.46 3.71.12 7.54-.11 11.41-.7-.41-1.12-.86-2.22-1.33-3.3.36.84.7 1.69 1.01 2.54zM362.83 841.24c1.99 2.63 3.75 5.35 5.24 8.12a59.747 59.747 0 0 0-5.24-8.12zM362.83 841.24c-.8-1.05-1.64-2.09-2.52-3.11-.01.01-.02.03-.03.04.88.97 1.73 2 2.55 3.07z"/><path d="M349.22 856.75c3.53.85 7.25 1.34 11.09 1.46 3.84-.12 7.56-.61 11.08-1.46-.31-.85-.65-1.69-1.01-2.54-.32-.73-.63-1.46-.97-2.17-.03-.08-.07-.15-.1-.23-.03-.06-.06-.11-.08-.17-.18-.37-.36-.74-.55-1.11-.06-.11-.11-.21-.17-.32-.15-.29-.3-.57-.45-.86-1.49-2.77-3.24-5.5-5.24-8.12-.82-1.07-1.67-2.09-2.55-3.07-4.96 5.79-8.7 12.16-11.05 18.59zM369.42 852.03c.34.71.66 1.44.97 2.17-.31-.72-.63-1.45-.97-2.17z"/><g><path d="M334.07 832.47c.1 4.06-3.1 7.45-7.16 7.55a7.36 7.36 0 0 1-7.55-7.16c-.11-4.06 3.1-7.44 7.17-7.55 4.05-.11 7.43 3.09 7.54 7.16" class="st2"/><path d="M317.41 832.92v-.26c0-5.03 4.01-9.17 9.06-9.3h.26c5.03 0 9.16 4.01 9.3 9.06l-1.95.05 1.95-.04v.24c0 5.03-4 9.17-9.07 9.31h-.24c-5.04-.01-9.18-4.02-9.31-9.06zm9.17-5.66a5.41 5.41 0 0 0-5.27 5.4v.14a5.41 5.41 0 0 0 5.4 5.27h.14c2.94-.07 5.26-2.48 5.26-5.4v-.14a5.407 5.407 0 0 0-5.4-5.26c-.03-.01-.07-.01-.13-.01z"/><g><path d="M401.26 832.47c.1 4.06-3.1 7.45-7.16 7.55a7.36 7.36 0 0 1-7.55-7.16c-.11-4.06 3.1-7.44 7.17-7.55 4.05-.11 7.43 3.09 7.54 7.16" class="st2"/><path d="M384.6 832.92v-.26c0-5.03 4.01-9.17 9.06-9.3h.26c5.03 0 9.16 4.01 9.3 9.06l-1.95.05 1.95-.04v.24c0 5.03-4.01 9.17-9.07 9.31h-.24c-5.04-.01-9.18-4.02-9.31-9.06zm9.16-5.66a5.41 5.41 0 0 0-5.27 5.4v.14a5.41 5.41 0 0 0 5.4 5.27h.14a5.387 5.387 0 0 0 5.26-5.4v-.14a5.407 5.407 0 0 0-5.4-5.26c-.02-.01-.07-.01-.13-.01z"/></g></g><g><path d="M367.67 889.77c.1 4.06-3.1 7.45-7.16 7.55-4.07.11-7.44-3.1-7.55-7.16-.11-4.06 3.1-7.44 7.16-7.55a7.354 7.354 0 0 1 7.55 7.16" class="st2"/><path d="M351 890.21v-.26c0-5.03 4.01-9.17 9.06-9.3.08 0 .16-.01.26-.01 5.03 0 9.16 4.01 9.3 9.06l-1.95.05 1.95-.05v.24c0 5.03-4.01 9.17-9.07 9.31h-.24c-5.04.02-9.17-3.99-9.31-9.04zm9.17-5.65a5.403 5.403 0 0 0-5.27 5.4v.15a5.4 5.4 0 0 0 5.4 5.26h.14a5.396 5.396 0 0 0 5.26-5.41v-.14a5.407 5.407 0 0 0-5.4-5.26h-.13z"/></g></g><g><path d="M64.9 877.43v-39.67h10.82v22.67c1.57-1.68 3.39-2.93 5.46-3.73 2.07-.8 4.33-1.2 6.77-1.2 2.75 0 5.36.57 7.81 1.71 2.45 1.14 4.57 2.72 6.36 4.72 1.79 2.01 3.21 4.35 4.27 7.01 1.06 2.67 1.59 5.51 1.59 8.51 0 3.04-.53 5.89-1.59 8.53-1.06 2.65-2.54 4.96-4.45 6.95a20.76 20.76 0 0 1-6.79 4.68c-2.62 1.14-5.51 1.71-8.66 1.71-3.2 0-6.12-.57-8.76-1.71-2.64-1.14-4.9-2.7-6.79-4.69-1.89-1.98-3.37-4.3-4.43-6.95-1.08-2.65-1.61-5.5-1.61-8.54m10.81.09c0 1.61.29 3.14.86 4.58.57 1.44 1.34 2.69 2.31 3.75s2.11 1.9 3.42 2.52c1.32.62 2.7.93 4.16.93s2.85-.3 4.16-.89a10.3 10.3 0 0 0 3.42-2.48c.97-1.06 1.74-2.31 2.31-3.75.57-1.44.86-2.99.86-4.66 0-1.74-.29-3.34-.86-4.8-.57-1.45-1.34-2.72-2.31-3.81-.97-1.08-2.11-1.92-3.42-2.52-1.31-.59-2.7-.89-4.16-.89s-2.85.31-4.16.93c-1.31.62-2.45 1.47-3.42 2.56-.97 1.08-1.74 2.36-2.31 3.83-.57 1.47-.86 3.04-.86 4.7M111.22 877.42c0-3.05.56-5.92 1.67-8.62 1.11-2.69 2.65-5.03 4.61-7.01 1.96-1.98 4.24-3.55 6.84-4.72 2.6-1.17 5.39-1.75 8.39-1.75 2.49 0 4.88.39 7.16 1.18 2.28.78 4.34 1.92 6.17 3.42s3.38 3.34 4.65 5.52c1.27 2.18 2.15 4.67 2.62 7.49l-29.63 12.42c1.09 1.4 2.39 2.5 3.9 3.3 1.51.79 3.19 1.19 5.05 1.19 1.75 0 3.43-.39 5.05-1.17 1.62-.78 2.89-2.02 3.82-3.72h11.49c-1.25 4.3-3.62 7.76-7.12 10.4-3.5 2.64-7.89 3.95-13.16 3.95-3 0-5.79-.57-8.39-1.71-2.6-1.14-4.88-2.7-6.84-4.69-1.96-1.99-3.5-4.3-4.61-6.95-1.11-2.63-1.67-5.48-1.67-8.53m10.19-.59 19.73-8.3a9.998 9.998 0 0 0-3.58-2.76c-1.41-.65-2.98-.97-4.73-.97-1.56 0-3.03.29-4.39.89-1.36.59-2.55 1.42-3.56 2.48-1.01 1.06-1.82 2.31-2.44 3.77-.65 1.46-.98 3.09-1.03 4.89M158.56 898.32v-7.65c0-2.93.46-5.51 1.37-7.71.91-2.21 2.25-4.07 4-5.57-1.75-1.51-3.09-3.4-4-5.64-.92-2.25-1.37-4.83-1.37-7.76v-7.62h10.74v8.21c0 2.4.66 4.35 1.99 5.83 1.33 1.48 3.02 2.22 5.09 2.22 2.12 0 3.85-.74 5.17-2.22 1.33-1.48 1.99-3.43 1.99-5.83v-8.21h10.74v7.62c0 2.9-.51 5.46-1.54 7.68-1.03 2.22-2.44 4.13-4.24 5.72 1.8 1.56 3.21 3.46 4.24 5.71 1.03 2.25 1.54 4.77 1.54 7.57v7.65h-10.74v-8.23c0-2.39-.66-4.32-1.99-5.79-1.32-1.47-3.05-2.21-5.17-2.21-2.07 0-3.77.74-5.09 2.21-1.33 1.47-1.99 3.4-1.99 5.79v8.23h-10.74zM203.1 880.64v-35.01h10.74v10.74h7.56v9.46h-7.56v14.81c0 2.94.66 4.99 1.99 6.15 1.17 1.06 2.88 1.59 5.13 1.59.32 0 .64-.01.95-.04v9.9c-.98.11-1.92.16-2.82.16-1.96 0-3.74-.24-5.33-.72-2.34-.72-4.29-1.86-5.87-3.45-1.58-1.58-2.77-3.52-3.58-5.81-.81-2.29-1.21-4.89-1.21-7.78M228.63 880.74v-43.03h10.81v42.92c0 2.99.66 5.05 1.99 6.19 1.17 1.03 2.85 1.55 5.05 1.55.32 0 .64-.01.95-.04v9.9c-.98.11-1.92.16-2.82.16-1.96 0-3.74-.24-5.33-.72-2.33-.72-4.27-1.85-5.85-3.4-1.57-1.55-2.77-3.47-3.58-5.76-.81-2.29-1.22-4.88-1.22-7.77M250.7 877.32c0-3.04.53-5.9 1.59-8.58 1.06-2.68 2.54-5.01 4.45-6.97 1.91-1.97 4.17-3.53 6.79-4.7 2.62-1.16 5.54-1.74 8.74-1.74 3.15 0 6.05.58 8.68 1.75 2.64 1.16 4.9 2.74 6.8 4.71 1.89 1.98 3.37 4.31 4.43 7 1.06 2.69 1.59 5.56 1.59 8.61v20.92h-10.18v-4.45c-1.56 1.76-3.44 3.1-5.64 4.01-2.2.91-4.58 1.36-7.15 1.36-2.75 0-5.35-.57-7.79-1.71a20.275 20.275 0 0 1-6.4-4.71c-1.83-2-3.27-4.31-4.33-6.95-1.05-2.64-1.58-5.49-1.58-8.55m10.81.08c0 1.67.29 3.23.86 4.67.57 1.44 1.35 2.7 2.33 3.76.98 1.06 2.12 1.89 3.43 2.49 1.3.6 2.68.89 4.14.89 1.46 0 2.85-.31 4.17-.93 1.32-.62 2.46-1.46 3.42-2.53.97-1.06 1.74-2.31 2.31-3.76.57-1.45.86-2.98.86-4.59 0-1.67-.29-3.24-.86-4.71-.57-1.47-1.34-2.75-2.31-3.84-.97-1.09-2.11-1.94-3.42-2.56-1.31-.62-2.7-.93-4.17-.93-1.46 0-2.84.3-4.14.89-1.3.59-2.44 1.44-3.43 2.53-.98 1.08-1.76 2.36-2.33 3.82-.57 1.45-.86 3.05-.86 4.8M298.75 898.32v-24.26c0-2.65.44-5.12 1.33-7.42.89-2.29 2.16-4.28 3.82-5.97 1.66-1.68 3.64-3 5.94-3.94 2.31-.94 4.91-1.41 7.8-1.41 2.94 0 5.55.46 7.84 1.37 2.29.92 4.23 2.2 5.83 3.86 1.6 1.66 2.82 3.63 3.67 5.9.84 2.28 1.27 4.81 1.27 7.6v24.26h-10.74v-24.5c0-.61-.08-1.37-.24-2.27-.16-.9-.51-1.79-1.05-2.65-.55-.86-1.33-1.59-2.37-2.18-1.03-.6-2.44-.9-4.21-.9-2.38 0-4.34.73-5.87 2.19-1.52 1.46-2.29 3.39-2.29 5.81v24.5h-10.73z" class="st2"/></g><g><path d="M383.87 877.38c0-3.05.54-5.91 1.62-8.6 1.08-2.68 2.57-5.02 4.48-6.99 1.9-1.97 4.17-3.54 6.83-4.71 2.65-1.17 5.55-1.75 8.71-1.75 5.12 0 9.45 1.33 13.01 3.98 3.55 2.65 5.95 6.38 7.2 11.18h-11.49c-.77-1.44-1.92-2.71-3.46-3.8-1.54-1.1-3.29-1.65-5.25-1.65-1.46 0-2.83.33-4.14 1-1.3.67-2.44 1.57-3.42 2.69-.98 1.12-1.76 2.43-2.33 3.93-.57 1.5-.86 3.1-.86 4.81 0 1.63.28 3.19.86 4.67.57 1.48 1.34 2.79 2.33 3.91.98 1.13 2.12 2 3.42 2.63 1.3.63 2.68.94 4.14.94 2.01 0 3.81-.54 5.39-1.61 1.58-1.08 2.71-2.36 3.4-3.84h11.49c-1.25 4.77-3.66 8.49-7.24 11.16-3.58 2.66-7.93 4-13.04 4-3.15 0-6.06-.57-8.71-1.71-2.65-1.14-4.93-2.71-6.83-4.7-1.91-1.99-3.39-4.31-4.48-6.97-1.09-2.66-1.63-5.52-1.63-8.57M428.94 877.26c0-3.14.55-6.04 1.67-8.72 1.11-2.67 2.62-4.99 4.53-6.95 1.91-1.96 4.13-3.5 6.67-4.6 2.54-1.11 5.29-1.66 8.23-1.66 2.95 0 5.69.55 8.24 1.66 2.55 1.11 4.78 2.64 6.71 4.6 1.92 1.96 3.44 4.28 4.56 6.95 1.12 2.68 1.67 5.58 1.67 8.72 0 3.17-.56 6.09-1.67 8.76-1.11 2.67-2.63 4.99-4.56 6.97a21.152 21.152 0 0 1-6.73 4.64c-2.56 1.12-5.3 1.68-8.22 1.68-2.94 0-5.68-.56-8.23-1.68a20.896 20.896 0 0 1-6.67-4.64c-1.91-1.97-3.42-4.3-4.53-6.97-1.11-2.66-1.67-5.58-1.67-8.76m10.74.08c0 1.8.27 3.43.82 4.88.54 1.46 1.28 2.71 2.19 3.77a9.178 9.178 0 0 0 3.31 2.44c1.29.57 2.64.85 4.04.85 1.41 0 2.74-.28 3.98-.85 1.25-.57 2.35-1.38 3.31-2.44s1.71-2.32 2.25-3.79c.54-1.47.82-3.09.82-4.87 0-1.8-.27-3.46-.82-4.98-.54-1.52-1.3-2.82-2.25-3.89-.95-1.07-2.06-1.91-3.31-2.52a8.964 8.964 0 0 0-3.98-.91c-1.41 0-2.76.3-4.04.91a9.886 9.886 0 0 0-3.31 2.52c-.92 1.07-1.65 2.37-2.19 3.89-.55 1.53-.82 3.19-.82 4.99M475.27 898.32v-24.26c0-2.65.44-5.12 1.33-7.42.89-2.29 2.15-4.28 3.78-5.97 1.63-1.68 3.61-3 5.95-3.94 2.33-.94 4.94-1.41 7.83-1.41s5.45.53 7.69 1.59c2.23 1.06 4.12 2.51 5.66 4.33 1.57-1.86 3.49-3.31 5.77-4.36 2.28-1.05 4.81-1.57 7.6-1.57 2.94 0 5.55.46 7.85 1.37 2.29.92 4.24 2.2 5.84 3.86 1.6 1.66 2.83 3.63 3.67 5.9.85 2.28 1.27 4.81 1.27 7.6v24.26h-10.74v-24.5c0-.61-.08-1.37-.24-2.27-.16-.9-.51-1.79-1.06-2.65-.54-.86-1.34-1.59-2.37-2.18-1.04-.6-2.45-.9-4.23-.9-2.39 0-4.35.73-5.88 2.19-1.53 1.46-2.29 3.39-2.29 5.81v24.5h-10.74v-24.5c0-.61-.08-1.37-.24-2.27-.16-.9-.5-1.79-1.01-2.65-.52-.86-1.29-1.59-2.33-2.18-1.03-.6-2.44-.9-4.22-.9-2.44 0-4.41.73-5.9 2.19-1.5 1.46-2.25 3.39-2.25 5.81v24.5h-10.74z" class="st2"/></g><path d="M64.64 937.24v-17.1h4.3v17.07c0 1.19.26 2.01.79 2.46.46.41 1.13.62 2.01.62.13 0 .25-.01.38-.02v3.94c-.39.04-.77.07-1.12.07-.78 0-1.49-.1-2.12-.29-.92-.28-1.7-.73-2.32-1.35-.63-.62-1.1-1.38-1.43-2.29-.33-.93-.49-1.96-.49-3.11M74.27 937.18v-9.63h4.27v9.74c0 .24.03.54.1.89.06.35.2.7.42 1.04.22.34.53.63.94.87.41.24.98.35 1.69.35.95 0 1.72-.29 2.32-.88.6-.59.9-1.35.9-2.27v-9.74h4.27v9.63c0 1.05-.18 2.03-.54 2.94-.36.91-.86 1.7-1.52 2.36-.66.67-1.45 1.19-2.37 1.58-.93.38-1.95.57-3.06.57-1.17 0-2.21-.18-3.13-.55-.92-.37-1.69-.88-2.33-1.54a6.506 6.506 0 0 1-1.45-2.35c-.35-.92-.51-1.92-.51-3.01M91.96 935.88c0-1.21.21-2.34.63-3.41a8.219 8.219 0 0 1 1.77-2.77c.76-.78 1.66-1.41 2.7-1.87 1.04-.46 2.2-.69 3.48-.69 1.25 0 2.4.23 3.45.7 1.05.46 1.95 1.09 2.7 1.87.75.79 1.34 1.71 1.76 2.78.42 1.07.63 2.21.63 3.42v7.48c0 1.38-.2 2.63-.6 3.74-.4 1.11-.97 2.06-1.71 2.83s-1.65 1.37-2.72 1.79c-1.07.42-2.27.63-3.61.63-1.01 0-1.97-.14-2.88-.42-.91-.28-1.71-.67-2.42-1.18-.71-.5-1.32-1.12-1.82-1.83s-.82-1.52-.97-2.4H97c.13.33.33.61.6.85.27.23.57.43.89.58.33.15.66.26.99.33.33.06.65.09.96.09 1.51 0 2.62-.45 3.32-1.36.7-.91 1.05-2.11 1.05-3.6v-.74a6.05 6.05 0 0 1-2.19 1.42c-.83.32-1.73.48-2.68.48-1.09 0-2.13-.22-3.1-.68a8.088 8.088 0 0 1-2.54-1.87c-.73-.79-1.3-1.71-1.72-2.76a9.347 9.347 0 0 1-.62-3.41m4.3.03c0 .66.11 1.28.34 1.86.23.57.54 1.07.93 1.5.39.42.85.75 1.36.99.52.24 1.06.36 1.65.36.58 0 1.13-.13 1.65-.38s.98-.58 1.36-1c.39-.42.69-.92.92-1.49.23-.58.34-1.18.34-1.83 0-.66-.11-1.29-.34-1.87-.23-.59-.53-1.09-.92-1.52-.38-.43-.84-.77-1.36-1.02-.52-.25-1.07-.37-1.65-.37-.58 0-1.13.12-1.65.35-.52.24-.97.57-1.36 1-.39.43-.7.94-.93 1.52-.23.57-.34 1.21-.34 1.9M111.77 935.88c0-1.21.21-2.34.63-3.41a8.219 8.219 0 0 1 1.77-2.77c.76-.78 1.66-1.41 2.7-1.87 1.04-.46 2.2-.69 3.48-.69 1.25 0 2.4.23 3.45.7 1.05.46 1.95 1.09 2.7 1.87.75.79 1.34 1.71 1.76 2.78.42 1.07.63 2.21.63 3.42v8.32h-4.05v-1.77a6.04 6.04 0 0 1-2.24 1.59c-.87.36-1.82.54-2.84.54-1.09 0-2.13-.22-3.09-.68a8.088 8.088 0 0 1-2.54-1.87c-.73-.79-1.3-1.71-1.72-2.76-.43-1.05-.64-2.18-.64-3.4m4.3.03c0 .66.11 1.28.34 1.86.23.57.54 1.07.93 1.5.39.42.85.75 1.36.99.52.24 1.07.36 1.65.36.58 0 1.13-.13 1.65-.38s.98-.58 1.36-1c.39-.42.69-.92.92-1.49.23-.58.34-1.18.34-1.83 0-.66-.11-1.29-.34-1.87-.23-.59-.53-1.09-.92-1.52-.38-.43-.84-.77-1.36-1.02-.52-.25-1.07-.37-1.65-.37-.58 0-1.13.12-1.65.35-.52.24-.97.57-1.36 1-.39.43-.7.94-.93 1.52-.23.57-.34 1.21-.34 1.9M132.52 944.23v-9.64c0-1.19.2-2.27.59-3.24.4-.97.97-1.79 1.73-2.46.76-.67 1.68-1.16 2.77-1.46.7-.19 1.45-.29 2.26-.29.46 0 .95.03 1.46.09v3.99c-.37-.07-.72-.1-1.06-.1-.89 0-1.63.23-2.23.7-.83.63-1.25 1.55-1.25 2.74v9.67h-4.27zM148.67 935.93c0-1.19.21-2.32.63-3.38.42-1.06.99-1.99 1.72-2.79.73-.79 1.57-1.42 2.53-1.88.96-.45 1.99-.68 3.08-.68 1.99 0 3.62.65 4.89 1.96v-8.99h4.27v15.75c0 1.21-.21 2.34-.63 3.39a8.514 8.514 0 0 1-1.76 2.76c-.75.79-1.65 1.41-2.7 1.86-1.05.45-2.2.68-3.45.68-1.28 0-2.43-.23-3.48-.68a8.247 8.247 0 0 1-2.7-1.86 8.48 8.48 0 0 1-1.77-2.76c-.42-1.04-.63-2.17-.63-3.38m4.3.03c0 .66.11 1.28.34 1.85.23.57.54 1.07.93 1.49.39.42.84.75 1.36.98.52.24 1.07.36 1.65.36.58 0 1.13-.12 1.65-.37s.98-.58 1.36-1c.39-.42.69-.92.92-1.49.23-.57.34-1.18.34-1.82 0-.66-.11-1.28-.34-1.87-.23-.58-.53-1.09-.92-1.52-.38-.43-.84-.77-1.36-1.02-.52-.25-1.07-.37-1.65-.37-.58 0-1.13.12-1.65.36s-.97.57-1.36 1c-.39.43-.7.93-.93 1.51-.23.58-.34 1.22-.34 1.91M168.25 935.92c0-1.21.22-2.35.66-3.43.44-1.07 1.06-2 1.84-2.78.78-.79 1.68-1.41 2.72-1.88 1.03-.46 2.14-.69 3.34-.69.99 0 1.94.15 2.85.46.91.31 1.72.77 2.45 1.36.73.6 1.34 1.33 1.85 2.19.51.87.85 1.86 1.04 2.98l-11.78 4.94c.43.56.95 1 1.55 1.31.6.32 1.27.47 2.01.47.69 0 1.36-.16 2.01-.47.64-.31 1.15-.8 1.52-1.48h4.57c-.5 1.71-1.44 3.08-2.83 4.13-1.39 1.05-3.14 1.57-5.23 1.57-1.19 0-2.3-.23-3.34-.68a8.66 8.66 0 0 1-2.72-1.86 8.836 8.836 0 0 1-1.84-2.76c-.45-1.04-.67-2.17-.67-3.38m4.05-.24 7.84-3.3c-.39-.47-.86-.84-1.42-1.1-.56-.26-1.19-.39-1.88-.39-.62 0-1.2.12-1.75.36-.54.24-1.01.57-1.42.99-.4.42-.72.92-.97 1.5a5.45 5.45 0 0 0-.4 1.94" class="st0"/><path d="M187.51 939.69H192.04999999999998V944.23H187.51z" class="st0"/><path d="M193.75 939.69H198.29V944.23H193.75z" class="st0"/><path d="M200 939.69H204.54V944.23H200z" class="st0"/><path d="M213.47 935.92v-15.77h4.3v9.01c.62-.67 1.35-1.17 2.17-1.48.82-.32 1.72-.48 2.69-.48 1.09 0 2.13.23 3.1.68.97.45 1.82 1.08 2.53 1.88.71.8 1.27 1.73 1.7 2.79.42 1.06.63 2.19.63 3.38 0 1.21-.21 2.34-.63 3.39a8.376 8.376 0 0 1-1.77 2.76c-.76.79-1.66 1.41-2.7 1.86-1.04.45-2.19.68-3.44.68-1.27 0-2.44-.23-3.48-.68a8.043 8.043 0 0 1-2.7-1.86 8.622 8.622 0 0 1-1.76-2.76c-.43-1.06-.64-2.19-.64-3.4m4.3.04c0 .64.11 1.25.34 1.82.23.57.53 1.07.92 1.49.39.42.84.75 1.36 1 .52.25 1.07.37 1.65.37.58 0 1.13-.12 1.65-.36s.98-.56 1.36-.98a4.908 4.908 0 0 0 1.26-3.34c0-.69-.11-1.33-.34-1.91-.23-.58-.53-1.08-.92-1.51-.38-.43-.84-.77-1.36-1-.52-.24-1.07-.36-1.65-.36-.58 0-1.13.12-1.65.37s-.98.58-1.36 1.02c-.39.43-.69.94-.92 1.52-.23.59-.34 1.21-.34 1.87" class="st2"/><path d="M233.61 925.75v-2.4c0-.6.21-1.11.63-1.52.42-.41.93-.62 1.53-.62.58 0 1.08.21 1.5.62.42.41.63.91.63 1.52v2.4h-4.29zm.03 1.8h4.27v16.68h-4.27v-16.68zM241.67 937.2v-13.92h4.27v4.27h3v3.76h-3v5.89c0 1.17.26 1.98.79 2.45.46.42 1.14.63 2.04.63.13 0 .25-.01.38-.02v3.94c-.39.04-.77.06-1.12.06-.78 0-1.48-.09-2.12-.29-.93-.28-1.71-.74-2.33-1.37-.63-.63-1.1-1.4-1.42-2.31-.33-.91-.49-1.94-.49-3.09M250.56 944.23v-4.16c.2.01.4.01.6.01.34 0 .65-.02.95-.06.46-.08.84-.26 1.14-.57.21-.19.41-.53.58-1.03.18-.5.27-1.34.27-2.54 0-.54.02-1.1.06-1.68.04-.58.14-1.17.29-1.74.15-.57.37-1.13.65-1.67s.67-1.03 1.16-1.49c1.19-1.17 2.77-1.76 4.74-1.76.29 0 .58.01.89.03v4.17c-.21-.02-.41-.03-.6-.03-.9 0-1.59.25-2.09.75-.11.1-.21.22-.3.36-.1.14-.18.34-.26.6-.08.26-.15.59-.2.97-.05.38-.08.88-.08 1.49 0 .56-.02 1.13-.06 1.73-.04.59-.14 1.19-.29 1.78-.15.59-.37 1.16-.65 1.71a5.63 5.63 0 0 1-1.13 1.51c-.69.66-1.52 1.12-2.47 1.38-.71.18-1.48.27-2.31.27-.29 0-.59-.01-.89-.03M262.34 944.23v-4.54h4.54v5.09c0 1.46-.39 2.59-1.16 3.38-.78.79-1.78 1.25-3.01 1.38v-2.01c.66-.15 1.17-.46 1.5-.94.34-.48.51-1.07.51-1.78v-.58h-2.38z" class="st0"/><path d="M277.04 927.55 281.51 927.55 285.66 939.99 289.83 927.55 294.24 927.55 287.95 944.23 283.35 944.23z" class="st0"/><path d="M295.22 935.92c0-1.21.22-2.35.66-3.43.44-1.07 1.05-2 1.83-2.78.78-.79 1.69-1.41 2.72-1.88 1.03-.46 2.14-.69 3.34-.69.99 0 1.94.15 2.84.46.91.31 1.72.77 2.45 1.36.73.6 1.34 1.33 1.85 2.19.51.87.85 1.86 1.04 2.98l-11.78 4.94c.43.56.95 1 1.55 1.31.6.32 1.27.47 2.01.47.7 0 1.37-.16 2.01-.47.64-.31 1.15-.8 1.52-1.48h4.57c-.5 1.71-1.44 3.08-2.83 4.13-1.39 1.05-3.14 1.57-5.23 1.57-1.19 0-2.3-.23-3.34-.68a8.66 8.66 0 0 1-2.72-1.86 8.64 8.64 0 0 1-1.83-2.76c-.44-1.04-.66-2.17-.66-3.38m4.05-.24 7.84-3.3c-.39-.47-.86-.84-1.42-1.1-.56-.26-1.19-.39-1.88-.39-.62 0-1.21.12-1.75.36s-1.02.57-1.42.99c-.4.42-.72.92-.97 1.5s-.38 1.23-.4 1.94" class="st2"/><path d="M313.95 935.91c0-1.21.22-2.35.65-3.42a8.548 8.548 0 0 1 1.78-2.78c.76-.79 1.66-1.41 2.71-1.87 1.05-.46 2.21-.69 3.46-.69 2.03 0 3.76.53 5.17 1.58 1.41 1.05 2.36 2.54 2.86 4.44h-4.57c-.31-.57-.76-1.07-1.38-1.51a3.49 3.49 0 0 0-2.09-.66c-.58 0-1.13.13-1.65.4s-.97.62-1.36 1.07c-.39.45-.7.97-.92 1.56-.23.6-.34 1.23-.34 1.91 0 .65.11 1.27.34 1.86.22.59.53 1.11.92 1.56.39.45.84.79 1.36 1.04.52.25 1.06.38 1.65.38.8 0 1.51-.22 2.14-.64.63-.43 1.08-.93 1.35-1.52h4.57c-.5 1.9-1.45 3.37-2.88 4.43-1.42 1.06-3.15 1.59-5.19 1.59-1.25 0-2.41-.23-3.46-.68a8.232 8.232 0 0 1-2.71-1.86 8.895 8.895 0 0 1-1.78-2.77 9.524 9.524 0 0 1-.63-3.42M333.19 937.2v-13.92h4.27v4.27h3v3.76h-3v5.89c0 1.17.26 1.98.79 2.45.46.42 1.14.63 2.04.63.13 0 .25-.01.38-.02v3.94c-.39.04-.77.06-1.12.06-.78 0-1.49-.09-2.12-.29-.93-.28-1.71-.74-2.33-1.37-.63-.63-1.1-1.4-1.42-2.31-.33-.91-.49-1.94-.49-3.09M342.72 935.86c0-1.25.22-2.4.66-3.47a8.833 8.833 0 0 1 1.8-2.77c.76-.78 1.64-1.39 2.65-1.83 1.01-.44 2.1-.66 3.27-.66s2.26.22 3.27.66c1.01.44 1.9 1.05 2.67 1.83.76.78 1.37 1.71 1.81 2.77.44 1.06.67 2.22.67 3.47 0 1.26-.22 2.42-.67 3.48a8.859 8.859 0 0 1-1.81 2.77c-.76.79-1.66 1.4-2.68 1.85-1.02.45-2.11.67-3.27.67-1.17 0-2.26-.22-3.27-.67a8.332 8.332 0 0 1-2.65-1.85 8.72 8.72 0 0 1-1.8-2.77 9.37 9.37 0 0 1-.65-3.48m4.27.03c0 .72.11 1.36.32 1.94.22.58.51 1.08.87 1.5.36.42.8.75 1.31.97.51.23 1.05.34 1.61.34s1.09-.11 1.58-.34c.5-.23.93-.55 1.32-.97.38-.42.68-.92.89-1.5.22-.59.33-1.23.33-1.94s-.11-1.37-.33-1.98a4.83 4.83 0 0 0-.89-1.54c-.38-.43-.82-.76-1.32-1.01-.5-.24-1.02-.36-1.58-.36s-1.1.12-1.61.36c-.51.25-.95.58-1.31 1.01-.36.42-.65.94-.87 1.54a6 6 0 0 0-.32 1.98M362.31 944.23v-9.64c0-1.19.2-2.27.59-3.24.4-.97.97-1.79 1.73-2.46.76-.67 1.68-1.16 2.77-1.46.69-.19 1.45-.29 2.26-.29.46 0 .95.03 1.45.09v3.99c-.37-.07-.72-.1-1.06-.1-.88 0-1.63.23-2.23.7-.83.63-1.25 1.55-1.25 2.74v9.67h-4.26zM372.59 935.92c0-1.21.22-2.35.66-3.43.44-1.07 1.05-2 1.83-2.78.78-.79 1.69-1.41 2.72-1.88 1.03-.46 2.14-.69 3.33-.69.99 0 1.94.15 2.85.46.9.31 1.72.77 2.45 1.36.73.6 1.34 1.33 1.85 2.19.5.87.85 1.86 1.04 2.98l-11.78 4.94c.43.56.95 1 1.55 1.31.6.32 1.27.47 2.01.47.7 0 1.37-.16 2.01-.47.64-.31 1.15-.8 1.52-1.48h4.57c-.5 1.71-1.44 3.08-2.83 4.13-1.39 1.05-3.14 1.57-5.23 1.57-1.19 0-2.3-.23-3.33-.68a8.66 8.66 0 0 1-2.72-1.86 8.64 8.64 0 0 1-1.83-2.76c-.45-1.04-.67-2.17-.67-3.38m4.04-.24 7.84-3.3c-.39-.47-.87-.84-1.42-1.1-.56-.26-1.19-.39-1.88-.39-.62 0-1.21.12-1.75.36s-1.01.57-1.42.99c-.4.42-.72.92-.97 1.5a5.45 5.45 0 0 0-.4 1.94M390.67 944.23v-4.16c.2.01.4.01.6.01.34 0 .65-.02.95-.06.46-.08.84-.26 1.14-.57.21-.19.4-.53.59-1.03.18-.5.27-1.34.27-2.54 0-.54.02-1.1.06-1.68.04-.58.14-1.17.29-1.74.15-.57.37-1.13.65-1.67s.67-1.03 1.16-1.49c1.19-1.17 2.77-1.76 4.74-1.76.28 0 .58.01.88.03v4.17c-.21-.02-.41-.03-.6-.03-.9 0-1.59.25-2.09.75-.11.1-.2.22-.3.36-.1.14-.18.34-.26.6-.08.26-.15.59-.2.97-.05.38-.08.88-.08 1.49 0 .56-.02 1.13-.06 1.73-.04.59-.14 1.19-.29 1.78-.15.59-.37 1.16-.65 1.71a5.63 5.63 0 0 1-1.13 1.51c-.7.66-1.52 1.12-2.47 1.38-.71.18-1.48.27-2.31.27-.29 0-.59-.01-.89-.03M411.37 937.31v-9.75h4.27v9.8c0 .24.03.55.1.92.06.37.2.72.42 1.08.22.35.53.66.94.91.41.26.96.38 1.66.38.97 0 1.75-.31 2.34-.93.59-.62.88-1.4.88-2.36v-9.8h4.27v17.36c0 1.12-.18 2.13-.54 3.06-.36.92-.86 1.71-1.5 2.37-.65.66-1.42 1.16-2.33 1.52-.91.35-1.91.53-3.03.53-.91 0-1.77-.14-2.59-.42a7.03 7.03 0 0 1-2.19-1.19 6.939 6.939 0 0 1-1.6-1.85c-.43-.72-.72-1.51-.87-2.37h4.44c.12.62.44 1.08.95 1.39.51.3 1.13.46 1.87.46.58 0 1.07-.09 1.47-.28.4-.18.72-.43.97-.74s.42-.65.53-1.03c.11-.38.16-.76.16-1.15v-1.92c-.5.43-1.07.75-1.71.99-.65.23-1.35.35-2.09.35-1.01 0-1.94-.18-2.78-.54-.84-.36-1.56-.86-2.16-1.49-.6-.64-1.06-1.41-1.38-2.3-.34-.91-.5-1.91-.5-3M436.57 951.64v-15.79c0-1.19.21-2.32.63-3.38a8.713 8.713 0 0 1 1.76-2.78c.75-.79 1.65-1.42 2.7-1.87 1.05-.45 2.21-.68 3.48-.68 1.25 0 2.4.23 3.44.67 1.04.45 1.94 1.07 2.7 1.87.76.79 1.35 1.72 1.77 2.77.42 1.05.63 2.17.63 3.36 0 1.22-.21 2.35-.63 3.41a9.36 9.36 0 0 1-1.7 2.79c-.71.81-1.55 1.43-2.53 1.89-.98.45-2.01.68-3.1.68-1.99 0-3.61-.65-4.86-1.96v9.01h-4.29zm4.3-15.82c0 .66.11 1.29.34 1.88.23.58.53 1.09.92 1.52.39.43.84.77 1.36 1.02.52.25 1.07.37 1.66.37.58 0 1.13-.12 1.65-.37s.98-.58 1.36-1c.39-.42.69-.93.92-1.51.23-.58.34-1.22.34-1.91 0-.66-.12-1.28-.34-1.86-.22-.57-.53-1.07-.92-1.5a4.29 4.29 0 0 0-1.36-.99c-.52-.24-1.07-.36-1.65-.36-.58 0-1.13.12-1.66.37-.52.25-.98.58-1.36 1-.38.42-.69.92-.92 1.49-.22.6-.34 1.2-.34 1.85M456.71 925.75v-2.4c0-.6.21-1.11.63-1.52.42-.41.93-.62 1.53-.62.58 0 1.08.21 1.5.62.42.41.63.91.63 1.52v2.4h-4.29zm.04 1.8h4.27v16.68h-4.27v-16.68z" class="st0"/><path d="M464.84 944.23v-3.04c0-1.17.18-2.19.55-3.07.36-.88.89-1.62 1.59-2.22-.7-.6-1.22-1.35-1.59-2.24-.36-.89-.55-1.92-.55-3.08v-3.03h4.27v3.26c0 .96.26 1.73.79 2.32.53.59 1.2.88 2.02.88.84 0 1.53-.29 2.06-.88.53-.59.79-1.36.79-2.32v-3.26h4.27v3.03c0 1.15-.2 2.17-.61 3.05-.41.88-.97 1.64-1.69 2.28.71.62 1.28 1.38 1.69 2.27.41.89.61 1.9.61 3.01v3.04h-4.27v-3.27c0-.95-.27-1.72-.79-2.3-.53-.58-1.21-.88-2.06-.88-.82 0-1.5.29-2.02.88-.53.59-.79 1.35-.79 2.3v3.27h-4.27z" class="st2"/><path d="M481.79 935.92c0-1.21.22-2.35.66-3.43.44-1.07 1.05-2 1.83-2.78.78-.79 1.68-1.41 2.72-1.88 1.03-.46 2.14-.69 3.33-.69.99 0 1.94.15 2.85.46.9.31 1.72.77 2.45 1.36.73.6 1.34 1.33 1.85 2.19.51.87.85 1.86 1.04 2.98l-11.78 4.94c.43.56.95 1 1.55 1.31.6.32 1.27.47 2.01.47.7 0 1.36-.16 2.01-.47.64-.31 1.15-.8 1.52-1.48h4.57c-.5 1.71-1.44 3.08-2.83 4.13-1.39 1.05-3.14 1.57-5.23 1.57-1.19 0-2.3-.23-3.33-.68a8.66 8.66 0 0 1-2.72-1.86 8.64 8.64 0 0 1-1.83-2.76c-.45-1.04-.67-2.17-.67-3.38m4.04-.24 7.84-3.3c-.39-.47-.87-.84-1.42-1.1-.56-.26-1.18-.39-1.88-.39-.62 0-1.21.12-1.75.36s-1.02.57-1.41.99c-.4.42-.73.92-.97 1.5-.25.58-.39 1.23-.41 1.94M501.23 937.24v-17.1h4.3v17.07c0 1.19.26 2.01.79 2.46.46.41 1.13.62 2.01.62.13 0 .25-.01.38-.02v3.94c-.39.04-.77.07-1.12.07-.78 0-1.49-.1-2.12-.29-.92-.28-1.7-.73-2.32-1.35-.62-.62-1.1-1.38-1.42-2.29-.34-.93-.5-1.96-.5-3.11M510 935.92c0-1.21.22-2.35.66-3.43.44-1.07 1.05-2 1.83-2.78.78-.79 1.69-1.41 2.72-1.88 1.03-.46 2.15-.69 3.34-.69.99 0 1.94.15 2.85.46.91.31 1.72.77 2.45 1.36.73.6 1.34 1.33 1.85 2.19.5.87.85 1.86 1.04 2.98l-11.78 4.94c.43.56.95 1 1.55 1.31.6.32 1.27.47 2.01.47.7 0 1.36-.16 2.01-.47.64-.31 1.15-.8 1.52-1.48h4.57c-.5 1.71-1.44 3.08-2.83 4.13-1.39 1.05-3.14 1.57-5.23 1.57-1.19 0-2.3-.23-3.34-.68a8.66 8.66 0 0 1-2.72-1.86 8.64 8.64 0 0 1-1.83-2.76c-.45-1.04-.67-2.17-.67-3.38m4.05-.24 7.84-3.3c-.39-.47-.87-.84-1.42-1.1-.56-.26-1.19-.39-1.88-.39-.62 0-1.21.12-1.75.36s-1.02.57-1.41.99c-.4.42-.72.92-.97 1.5s-.39 1.23-.41 1.94M528.09 944.23v-4.16c.2.01.4.01.6.01.33 0 .65-.02.95-.06.46-.08.84-.26 1.14-.57.21-.19.41-.53.59-1.03s.27-1.34.27-2.54c0-.54.02-1.1.06-1.68.04-.58.14-1.17.29-1.74.15-.57.37-1.13.65-1.67s.66-1.03 1.16-1.49c1.19-1.17 2.77-1.76 4.74-1.76.29 0 .58.01.89.03v4.17c-.21-.02-.41-.03-.6-.03-.9 0-1.59.25-2.09.75-.11.1-.21.22-.3.36-.09.14-.18.34-.26.6-.08.26-.15.59-.2.97-.05.38-.08.88-.08 1.49 0 .56-.02 1.13-.06 1.73-.04.59-.14 1.19-.29 1.78-.15.59-.37 1.16-.65 1.71a5.63 5.63 0 0 1-1.13 1.51c-.7.66-1.52 1.12-2.47 1.38-.71.18-1.48.27-2.31.27-.3 0-.6-.01-.9-.03" class="st0"/><path d="M546.59 473.58c-16.14-17.57-39.3-28.59-65.03-28.59-2.24 0-4.45.11-6.64.28v-.01h-.01c-11.61-20.64-33.71-34.59-59.08-34.59-22.65 0-42.68 11.12-54.99 28.18-18.6-16.25-42.92-26.11-69.55-26.11-20.48 0-39.59 5.84-55.79 15.91a66.762 66.762 0 0 0-36.31-10.68c-28.84 0-53.42 18.21-62.91 43.74l-.04-.01-.1-.03-.51-.15v.01a89.184 89.184 0 0 0-25.57-3.74c-1.13 0-2.24.04-3.34.09-2.98.11-5.92.37-8.82.77-46.24 2.85-82.87 41.24-82.87 88.21 0 46.94 36.6 85.31 82.81 88.2 2.92.4 5.88.66 8.88.77 3.02-.11 5.99-.37 8.92-.77 9.23-.58 18.08-2.58 26.33-5.79l.07.03c.26.11.52.2.77.31l.07.03h.01a77.04 77.04 0 0 0 9.05 3.07A66.864 66.864 0 0 0 186 635.1c9.88-1.53 18.8-4.96 26.76-10.62 19.47 21.24 47.44 34.57 78.52 34.57 29.83 0 56.77-12.29 76.1-32.05l.02.01.01-.01a67.64 67.64 0 0 0 22.69 3.91c18.25 0 34.8-7.23 46.98-18.96 14.15 9.62 31.41 14.93 49.8 14.93 48.76 0 88.28-39.53 88.28-88.28-.01-25.74-11.02-48.89-28.57-65.02zm-3.55 121.17c-15.74 15.74-37.47 25.47-61.48 25.47-15.58 0-31.38-2.89-43.96-10h-.01c-1.06-.73-2.11-1.48-3.13-2.26l-.43-.32-.41.35c-11.67 10.13-26.87 16.27-43.53 16.27-4.84 0-9.56-.53-14.11-1.52-.08-.02-.17-.03-.25-.05a.355.355 0 0 0-.1-.02c-1.51-.34-3-.72-4.47-1.16h-.01c-1.24-.37-2.47-.76-3.68-1.2l-.4-.14-.3.3c-1.27 1.27-2.59 2.5-3.93 3.71l-.03.02c-18.62 16.71-43.22 26.89-70.22 26.89-29.09 0-55.4-11.83-74.44-30.92 6.5-5.82 12.29-13.37 17.35-22.88-14.01 18.88-34.72 32.66-57.84 32.97l-4.3-.02a66.093 66.093 0 0 1-23.1-5.15l-.02-.01c-1.18-.5-2.34-1.04-3.49-1.61l-.31-.16-.31.17a87.942 87.942 0 0 1-6.43 3.25l-.05.02a87.271 87.271 0 0 1-32.96 7.76c-46.87-1.74-84.39-40.3-84.39-87.64s37.5-85.9 84.41-87.65c9.97.38 19.51 2.41 28.36 5.84.61.23 1.2.47 1.79.71.12.05.24.09.35.14l.61.25.26-.6c.3-.71.62-1.41.95-2.11 10.63-22.54 33.55-38.15 60.12-38.15a66.18 66.18 0 0 1 29.72 7.02 107.064 107.064 0 0 0-28.93 31.46l.57.34.57.34c1.26-2.09 2.61-4.11 4.01-6.11 8.11-9.6 17.88-17.76 28.9-23.98 1.8-1.02 3.63-1.99 5.49-2.91 14.03-6.87 29.79-10.73 46.46-10.73 27 0 51.62 10.13 70.32 26.77.5.44.98.89 1.46 1.34-.02.04-.05.08-.07.11l.57.34.57.34a66.14 66.14 0 0 1 5.42-7.73c3.25-4 6.98-7.6 11.06-10.76 11.21-8.65 25.25-13.81 40.51-13.81 2.51 0 4.98.16 7.42.43 8.7.97 16.9 3.59 24.26 7.59a66.72 66.72 0 0 1 23.39 21.24l.03.05c1.2 1.77 2.31 3.61 3.34 5.5l.22.4.46-.06c.54-.08 1.09-.14 1.63-.21.26-.03.53-.07.79-.1l.09-.01c3.1-.33 6.24-.52 9.43-.52 22.66 0 43.28 8.67 58.76 22.88 14.2 15.48 22.88 36.1 22.88 58.77.03 23.99-9.7 45.73-25.44 61.46z" class="st3"/><g><path d="M546.96 59.64c-24.82-6.08-55.09-2.92-82.81 11.93-14.09 7.55-25.99 17.37-35.45 28.35-9.45-10.98-21.36-20.81-35.45-28.35-27.72-14.85-57.99-18-82.81-11.93 8.7 24.03 28.48 46.77 56.2 61.62 13.53 7.25 27.6 11.82 41.34 13.91-4.66 13.18-7.25 27.84-7.25 43.29 0 31.32 10.83 59.39 27.78 78.4 16.95-19.01 28.59-47.08 28.59-78.4 0-15.46-2.79-30.12-7.64-43.3 13.74-2.09 27.79-6.67 41.31-13.91 27.71-14.83 47.49-37.58 56.19-61.61z" class="st0"/><path d="M428.5 260.56v-3.69 3.69c-1.05 0-2.05-.45-2.75-1.23-17.62-19.78-28.71-48.69-28.72-80.85.01-32.28 10.96-61.3 28.73-81.1.7-.77 1.7-1.22 2.74-1.22 1.04 0 2.05.45 2.75 1.22 17.72 19.75 29.52 48.75 29.53 81.1-.01 32.24-11.94 61.13-29.53 80.85-.69.78-1.69 1.23-2.75 1.23zm.01-3.69 2.75-2.45-2.75 2.45zm-23.26-78.39c-.01 28.72 9.38 54.57 24.1 72.71 14.83-18.19 24.91-44.06 24.9-72.71.01-28.81-9.98-54.78-24.9-72.97-14.8 18.15-24.1 44.11-24.1 72.97z" class="st1"/><path d="M364.89 124.51c-28.45-15.25-48.86-38.61-57.92-63.61-.4-1.1-.25-2.33.4-3.3a3.7 3.7 0 0 1 2.19-1.54c8.14-1.99 16.81-3.02 25.77-3.02 19.4 0 40.15 4.83 59.66 15.28 28.41 15.23 48.24 39.39 57.33 64.2.29.79.3 1.64.04 2.43-.4 1.21-1.4 2.12-2.64 2.42-7.77 1.87-16 2.82-24.47 2.82-19.61.01-40.56-5.07-60.36-15.68zm3.48-6.5c18.75 10.04 38.54 14.81 56.88 14.81 6.42 0 12.65-.58 18.6-1.72-9.04-21.66-27.08-42.76-52.34-56.28-18.42-9.87-38-14.41-56.18-14.41-6.88 0-13.56.65-19.9 1.9 9.01 21.62 27.49 42.08 52.94 55.7z" class="st1"/><path d="m407.67 137.37.86-3.59-.86 3.59a3.682 3.682 0 0 1-2.59-4.85c9.09-24.81 28.92-48.97 57.33-64.2 19.51-10.45 40.26-15.28 59.66-15.28 8.96 0 17.63 1.03 25.77 3.02.9.22 1.68.77 2.19 1.54.65.97.8 2.2.4 3.3-9.07 25-29.47 48.36-57.93 63.61-19.8 10.6-40.75 15.68-60.36 15.68-8.47.01-16.7-.94-24.47-2.82zm24.47-4.55c18.33 0 38.12-4.77 56.88-14.81 25.45-13.62 43.93-34.08 52.94-55.69-6.34-1.25-13.02-1.9-19.9-1.9-18.18 0-37.76 4.54-56.18 14.41-25.26 13.52-43.31 34.62-52.34 56.28 5.95 1.13 12.19 1.71 18.6 1.71z" class="st1"/><path d="M428.7 136.45c-6.98-.22-13.74-1.11-20.16-2.66 4.28-11.69 11.07-23.28 20.11-33.8-.04-.05-.09-.1-.13-.15-8.68 9.67-15.71 21.71-20.53 35.34a113.96 113.96 0 0 0 20.71 1.27zM448.86 133.79c-6.42 1.55-13.19 2.44-20.16 2.66 6.76.21 13.71-.2 20.75-1.28-.75-2.04-1.57-4.04-2.42-6.01.65 1.54 1.27 3.08 1.83 4.63zM433.27 105.58c3.63 4.78 6.81 9.73 9.53 14.77a107.04 107.04 0 0 0-9.53-14.77z" class="st1"/><path d="M433.27 105.58c-1.45-1.92-2.98-3.8-4.58-5.65-.02.02-.04.04-.06.07 1.6 1.77 3.15 3.64 4.64 5.58z" class="st1"/><path d="M408.53 133.79c6.42 1.55 13.19 2.44 20.17 2.66 6.98-.22 13.74-1.11 20.16-2.66-.56-1.54-1.18-3.08-1.83-4.62-.57-1.33-1.15-2.66-1.77-3.95-.07-.14-.13-.27-.19-.41-.05-.1-.1-.21-.15-.31-.32-.67-.66-1.34-1-2.01-.1-.19-.2-.39-.3-.58-.27-.52-.54-1.04-.82-1.56-2.72-5.04-5.9-9.99-9.53-14.77-1.49-1.94-3.04-3.8-4.64-5.59-9.03 10.52-15.82 22.11-20.1 33.8zM445.26 125.22z" class="st1"/><g><path d="M380.97 89.63c.19 7.39-5.63 13.54-13.03 13.73-7.4.19-13.53-5.64-13.73-13.03-.19-7.39 5.64-13.54 13.03-13.73 7.39-.19 13.54 5.64 13.73 13.03" class="st2"/><path d="M350.67 90.44v-.47c0-9.15 7.29-16.68 16.48-16.92.15 0 .3-.01.47-.01 9.14 0 16.66 7.29 16.91 16.48l-3.55.1 3.55-.08v.43c0 9.15-7.28 16.68-16.5 16.93-.15 0-.29.01-.44.01-9.16.01-16.67-7.29-16.92-16.47zm16.67-10.28c-5.35.14-9.58 4.51-9.58 9.82v.27a9.836 9.836 0 0 0 9.83 9.58h.26c5.34-.14 9.58-4.52 9.57-9.83v-.27c-.15-5.34-4.53-9.56-9.82-9.56a.713.713 0 0 0-.26-.01z" class="st1"/><g><path d="M503.18 89.63c.19 7.39-5.64 13.54-13.03 13.73-7.4.19-13.53-5.64-13.73-13.03-.19-7.39 5.64-13.54 13.03-13.73 7.38-.19 13.53 5.64 13.73 13.03" class="st2"/><path d="M472.87 90.44c0-.15-.01-.3-.01-.47 0-9.15 7.29-16.68 16.48-16.92.15 0 .3-.01.46-.01 9.15 0 16.67 7.29 16.92 16.48l-3.55.1 3.55-.08c0 .15.01.29.01.43 0 9.15-7.29 16.68-16.5 16.93-.14 0-.29.01-.44.01-9.16.01-16.67-7.29-16.92-16.47zm16.67-10.28c-5.35.14-9.58 4.51-9.58 9.82 0 .08 0 .16.01.27.14 5.34 4.51 9.58 9.82 9.58h.26c5.34-.14 9.57-4.52 9.57-9.83v-.26c-.14-5.34-4.52-9.57-9.82-9.57a.713.713 0 0 0-.26-.01z" class="st1"/></g></g><g><path d="M442.07 193.85c.19 7.39-5.64 13.54-13.03 13.73-7.4.19-13.53-5.64-13.73-13.03-.2-7.39 5.64-13.54 13.03-13.73 7.39-.19 13.54 5.64 13.73 13.03" class="st2"/><path d="M411.77 194.66c0-.15-.01-.3-.01-.47 0-9.15 7.29-16.68 16.48-16.92.15 0 .3-.01.47-.01 9.14 0 16.66 7.29 16.91 16.48l-3.55.09 3.55-.08c0 .15.01.29.01.43 0 9.15-7.28 16.68-16.5 16.93h-.44c-9.16.02-16.68-7.27-16.92-16.45zm16.67-10.29c-5.35.13-9.58 4.51-9.58 9.82 0 .07 0 .16.01.26.14 5.34 4.51 9.58 9.82 9.57h.26c5.34-.14 9.58-4.52 9.57-9.83v-.27c-.15-5.33-4.53-9.56-9.82-9.56-.07.01-.15.01-.26.01z" class="st1"/></g></g><g><path d="M315.5 279.76V260.1h5.36v11.24c.78-.83 1.68-1.45 2.71-1.85 1.03-.4 2.14-.6 3.36-.6 1.37 0 2.65.28 3.87.85a9.82 9.82 0 0 1 3.15 2.34c.89.99 1.59 2.15 2.12 3.48.52 1.32.79 2.73.79 4.22 0 1.51-.26 2.92-.79 4.23-.53 1.31-1.26 2.46-2.21 3.44s-2.07 1.76-3.37 2.32c-1.3.56-2.73.85-4.29.85-1.59 0-3.04-.28-4.34-.85-1.31-.57-2.43-1.34-3.37-2.32-.94-.98-1.67-2.13-2.2-3.45-.53-1.32-.79-2.73-.79-4.24m5.36.04c0 .8.14 1.56.42 2.27.28.71.67 1.33 1.15 1.86.48.52 1.05.94 1.7 1.25.65.31 1.34.46 2.06.46s1.41-.15 2.06-.44c.65-.3 1.22-.7 1.7-1.23.48-.52.86-1.14 1.15-1.86.28-.71.42-1.48.42-2.31 0-.86-.14-1.66-.42-2.38-.28-.72-.67-1.35-1.15-1.89-.48-.54-1.05-.95-1.7-1.25-.65-.29-1.34-.44-2.06-.44s-1.41.15-2.06.46c-.65.31-1.22.73-1.7 1.27s-.86 1.17-1.15 1.9c-.28.73-.42 1.51-.42 2.33M339.27 279.75c0-1.51.28-2.94.83-4.27.55-1.33 1.31-2.49 2.29-3.47.97-.98 2.1-1.76 3.39-2.34 1.29-.58 2.67-.87 4.16-.87 1.24 0 2.42.19 3.55.58 1.13.39 2.15.95 3.06 1.7.91.74 1.67 1.65 2.3 2.73.63 1.08 1.06 2.32 1.3 3.71l-14.69 6.16a5.9 5.9 0 0 0 1.93 1.63c.75.39 1.58.59 2.5.59.87 0 1.7-.19 2.5-.58.8-.39 1.43-1 1.89-1.84h5.7c-.62 2.13-1.79 3.85-3.53 5.15-1.73 1.31-3.91 1.96-6.52 1.96-1.49 0-2.87-.28-4.16-.85s-2.42-1.34-3.39-2.32c-.97-.99-1.73-2.13-2.29-3.45-.54-1.29-.82-2.7-.82-4.22m5.05-.29 9.78-4.11a5.034 5.034 0 0 0-1.77-1.37c-.7-.32-1.48-.48-2.35-.48-.77 0-1.5.15-2.18.44-.68.29-1.26.7-1.76 1.23-.5.52-.9 1.15-1.21 1.87-.32.72-.49 1.53-.51 2.42M362.73 290.11v-3.79c0-1.45.23-2.73.68-3.82a7.23 7.23 0 0 1 1.98-2.76 7.147 7.147 0 0 1-1.98-2.8c-.45-1.11-.68-2.39-.68-3.84v-3.78h5.32v4.07c0 1.19.33 2.15.99 2.89.66.73 1.5 1.1 2.52 1.1 1.05 0 1.91-.37 2.56-1.1.66-.74.99-1.7.99-2.89v-4.07h5.32v3.78c0 1.44-.26 2.7-.77 3.81a8.581 8.581 0 0 1-2.1 2.84c.89.77 1.59 1.72 2.1 2.83s.77 2.36.77 3.75v3.79h-5.32v-4.08c0-1.18-.33-2.14-.99-2.87-.66-.73-1.51-1.09-2.56-1.09-1.03 0-1.87.36-2.52 1.09-.66.73-.99 1.69-.99 2.87v4.08h-5.32zM384.81 281.35V264h5.32v5.32h3.75v4.69h-3.75v7.34c0 1.46.33 2.47.99 3.05.58.52 1.43.79 2.54.79.16 0 .32-.01.47-.02v4.91c-.49.05-.95.08-1.4.08-.97 0-1.85-.12-2.64-.36-1.16-.36-2.13-.92-2.91-1.71-.78-.78-1.37-1.74-1.78-2.88-.39-1.14-.59-2.43-.59-3.86M397.47 281.4v-21.33h5.36v21.28c0 1.48.33 2.5.99 3.07.58.51 1.41.77 2.51.77.16 0 .31-.01.47-.02v4.91c-.48.05-.95.08-1.4.08-.97 0-1.85-.12-2.64-.36-1.15-.35-2.12-.92-2.9-1.68-.78-.77-1.37-1.72-1.78-2.86-.41-1.14-.61-2.43-.61-3.86M408.41 279.71c0-1.51.26-2.92.79-4.25.52-1.33 1.26-2.48 2.21-3.46s2.07-1.75 3.37-2.33c1.3-.58 2.74-.86 4.33-.86 1.56 0 3 .29 4.3.87 1.31.58 2.43 1.36 3.37 2.34.94.98 1.67 2.14 2.2 3.47s.79 2.76.79 4.27v10.37h-5.04v-2.21c-.78.87-1.71 1.54-2.79 1.99-1.09.45-2.27.67-3.54.67-1.36 0-2.65-.28-3.86-.85s-2.26-1.34-3.17-2.33c-.91-.99-1.62-2.14-2.14-3.44-.56-1.33-.82-2.74-.82-4.25m5.36.04c0 .83.14 1.6.43 2.32.28.72.67 1.34 1.15 1.86.49.53 1.05.94 1.7 1.23.64.3 1.33.44 2.05.44.72 0 1.41-.15 2.06-.46a5.55 5.55 0 0 0 1.7-1.25c.48-.53.86-1.15 1.15-1.86.28-.72.42-1.47.42-2.28 0-.83-.14-1.61-.42-2.34a6.15 6.15 0 0 0-1.15-1.9c-.48-.54-1.04-.96-1.7-1.27-.65-.31-1.34-.46-2.06-.46s-1.41.15-2.05.44-1.21.71-1.7 1.25-.87 1.17-1.15 1.89c-.29.72-.43 1.52-.43 2.39M433.37 290.11v-12.02c0-1.31.22-2.54.66-3.68a8.624 8.624 0 0 1 1.89-2.96 8.73 8.73 0 0 1 2.95-1.95c1.14-.47 2.43-.7 3.86-.7 1.46 0 2.75.23 3.89.68 1.13.45 2.1 1.09 2.89 1.91.79.82 1.4 1.8 1.82 2.93.42 1.13.63 2.39.63 3.77v12.02h-5.32v-12.14c0-.3-.04-.68-.12-1.12-.08-.45-.25-.88-.52-1.31-.27-.43-.66-.79-1.17-1.08-.51-.3-1.21-.44-2.09-.44-1.18 0-2.15.36-2.91 1.08-.76.72-1.13 1.68-1.13 2.88v12.14h-5.33z" class="st2"/><path d="M455.15 284.46H460.81V290.12H455.15z" class="st2"/><path d="M463.02 279.74c0-1.51.27-2.93.8-4.26.54-1.33 1.28-2.49 2.22-3.47.94-.98 2.07-1.76 3.38-2.33 1.31-.58 2.75-.87 4.32-.87 2.54 0 4.69.66 6.45 1.97 1.76 1.31 2.95 3.16 3.57 5.54h-5.7c-.38-.71-.95-1.34-1.71-1.88-.76-.54-1.63-.82-2.6-.82-.72 0-1.41.17-2.05.5-.65.33-1.21.77-1.7 1.33s-.87 1.2-1.15 1.95c-.28.74-.42 1.54-.42 2.38 0 .81.14 1.58.42 2.32a6.6 6.6 0 0 0 1.15 1.94c.49.56 1.05.99 1.7 1.3.64.31 1.33.47 2.05.47 1 0 1.89-.27 2.67-.8s1.34-1.17 1.69-1.9h5.7c-.62 2.36-1.81 4.21-3.59 5.53-1.78 1.32-3.93 1.98-6.47 1.98-1.56 0-3-.28-4.32-.85-1.31-.57-2.44-1.34-3.38-2.33s-1.68-2.14-2.22-3.45c-.54-1.33-.81-2.74-.81-4.25M486.07 279.68c0-1.56.28-2.99.83-4.32.55-1.33 1.3-2.47 2.24-3.45.95-.97 2.05-1.73 3.31-2.28 1.26-.55 2.62-.82 4.08-.82s2.82.27 4.08.82c1.26.55 2.37 1.31 3.33 2.28.95.97 1.71 2.12 2.26 3.45.55 1.33.83 2.77.83 4.32 0 1.57-.28 3.02-.83 4.34-.55 1.32-1.31 2.47-2.26 3.45a10.4 10.4 0 0 1-3.33 2.3c-1.27.55-2.63.83-4.07.83-1.46 0-2.82-.28-4.08-.83-1.26-.56-2.36-1.32-3.31-2.3-.95-.98-1.69-2.13-2.24-3.45-.57-1.32-.84-2.77-.84-4.34m5.32.04c0 .89.13 1.7.4 2.42s.63 1.34 1.09 1.87c.45.53 1 .93 1.64 1.21.64.28 1.31.42 2 .42.7 0 1.36-.14 1.97-.42.62-.28 1.17-.68 1.64-1.21.47-.52.85-1.15 1.12-1.88.27-.73.41-1.53.41-2.41 0-.89-.14-1.71-.41-2.47-.27-.75-.64-1.4-1.12-1.93-.47-.53-1.02-.95-1.64-1.25-.62-.3-1.28-.45-1.97-.45-.7 0-1.37.15-2 .45-.64.3-1.18.72-1.64 1.25-.45.53-.82 1.17-1.09 1.93-.27.75-.4 1.57-.4 2.47M509.57 290.11v-12.02c0-1.31.22-2.54.66-3.68a8.726 8.726 0 0 1 1.87-2.96c.81-.83 1.79-1.48 2.95-1.95 1.16-.47 2.45-.7 3.88-.7 1.43 0 2.7.26 3.81.79 1.11.53 2.04 1.24 2.8 2.15.78-.92 1.73-1.64 2.86-2.16 1.13-.52 2.39-.78 3.77-.78 1.46 0 2.75.23 3.89.68 1.14.45 2.1 1.09 2.89 1.91.79.82 1.4 1.8 1.82 2.93.42 1.13.63 2.39.63 3.77v12.02h-5.32v-12.14c0-.3-.04-.68-.12-1.12-.08-.45-.25-.88-.52-1.31-.27-.43-.66-.79-1.18-1.08-.51-.3-1.21-.44-2.09-.44-1.19 0-2.16.36-2.91 1.08-.76.72-1.14 1.68-1.14 2.88v12.14h-5.32v-12.14c0-.3-.04-.68-.12-1.12-.08-.45-.25-.88-.5-1.31-.26-.43-.64-.79-1.15-1.08-.51-.3-1.21-.44-2.09-.44-1.21 0-2.18.36-2.92 1.08-.74.72-1.12 1.68-1.12 2.88v12.14h-5.33z" class="st2"/></g></svg>