<svg xmlns="http://www.w3.org/2000/svg" x="0" y="0" enable-background="new 0 0 440.899 440.899" version="1.1" viewBox="0 0 440.899 440.899" xml:space="preserve"><path fill="#FF9500" d="M316.73 335.127c43.01 0 77.878-34.867 77.878-77.877v-62.152c0-28.842 19.65-53.088 46.292-60.1-11.112-22.113-33.989-37.297-60.424-37.297-36.764 0-66.651 29.354-67.557 65.896h-.043v93.652c0 21.522-17.448 38.969-38.97 38.969-13.067 0-24.624-6.438-31.694-16.307 9.706 31.956 39.391 55.216 74.518 55.216z"/><path fill="#D8D2C4" d="M380.476 97.701c-29.021 0-53.743 18.297-63.32 43.976 8.007 29.934 35.305 51.982 67.764 51.982a70.68 70.68 0 0 0 9.733-.688c.939-27.9 20.264-51.137 46.247-57.975-11.113-22.111-33.989-37.295-60.424-37.295z"/><path fill="#222" d="M322.771 271.219a142.631 142.631 0 0 0-9.895-24.822v10.853c0 21.522-17.448 38.969-38.97 38.969-13.067 0-24.624-6.438-31.694-16.307 9.707 31.955 39.392 55.215 74.519 55.215a77.628 77.628 0 0 0 29.009-5.605v-5.869c-.001-20.704-8.856-39.37-22.969-52.434z" opacity=".2"/><path fill="#FF9500" d="M131.331 258.99c-11.102 0-20.103 9-20.103 20.104v75.186H96.552c-8.458 0-15.313 6.857-15.313 15.314s6.856 15.314 15.313 15.314h54.882V279.094c0-11.104-9.001-20.104-20.103-20.104z"/><path fill="#222" d="M131.331 258.99c-11.102 0-20.103 9-20.103 20.104v75.186H96.552c-8.458 0-15.313 6.857-15.313 15.314s6.856 15.314 15.313 15.314h54.882V279.094c0-11.104-9.001-20.104-20.103-20.104z" opacity=".2"/><path fill="#FF9500" d="M184.919 178.164h-52.031v206.744h185.449v-73.326c-.001-73.685-59.734-133.418-133.418-133.418z"/><path fill="#FF9500" d="M184.919 178.164h-52.031v206.744h185.449v-73.326c-.001-73.685-59.734-133.418-133.418-133.418z"/><path fill="#FF9500" d="M184.919 178.164h-52.031v206.744h185.449v-73.326c-.001-73.685-59.734-133.418-133.418-133.418z"/><path fill="#222" d="M265.985 262.395c-33.83 0-61.255 27.426-61.255 61.258 0 11.16 3 21.615 8.215 30.627h-12.058c-8.458 0-15.314 6.857-15.314 15.314s6.856 15.314 15.314 15.314h126.354v-61.256c0-33.832-27.425-61.257-61.256-61.257zM161.06 258.99c-11.103 0-20.103 9-20.103 20.104v75.186h-8.069v30.629h48.275V279.094c-.001-11.104-9.001-20.104-20.103-20.104z" opacity=".2"/><g><path fill="#FF9500" d="M132.394 102.213c-4.433 2.82-4.191 7 .535 9.291l80.032 38.787c4.727 2.293 8.158-.109 7.625-5.334l-8.508-83.305c-.533-5.225-4.597-7.193-9.028-4.373l-70.656 44.934z"/><path fill="#D8D2C4" d="M198.971 124.311 195.009 85.502 162.09 106.436z"/><path fill="#222" d="m203.05 57.279-70.656 44.934c-4.433 2.82-4.191 7 .535 9.291l40.016 19.395 36.081-74.449c-1.636-.794-3.761-.583-5.976.829z" opacity=".2"/><path fill="#FF9500" d="M109.819 102.213c4.433 2.82 4.191 7-.535 9.291l-80.032 38.787c-4.727 2.293-8.158-.109-7.625-5.334l8.508-83.305c.533-5.225 4.597-7.193 9.028-4.373l70.656 44.934z"/><path fill="#D8D2C4" d="M43.242 124.311 47.204 85.502 80.123 106.436z"/><path fill="#222" d="m33.187 56.449.002-.002c-1.638.793-2.788 2.592-3.054 5.205l-8.508 83.305c-.533 5.225 2.898 7.627 7.625 5.334l40.016-19.393-36.081-74.449z" opacity=".2"/><path fill="#FF9500" d="M121.106 93.338C61.256 93.338 11.351 135.902 0 192.41c41.564 8.998 77.26 33.746 100.516 67.697.008.01.016.008.023.02 4.332 6.779 11.925 11.275 20.568 11.275 8.636 0 16.224-4.49 20.558-11.26.007-.012.013-.01.02-.018 23.255-33.959 58.955-58.715 100.527-67.715-11.351-56.507-61.256-99.071-121.106-99.071z"/><path fill="#D8D2C4" d="M44.218 120.184C21.875 137.975 5.838 163.348 0 192.41c41.564 8.998 77.26 33.746 100.516 67.697.008.01.016.008.023.02a24.479 24.479 0 0 0 4.658 5.361 189.1 189.1 0 0 0 .162-7.473c-.001-54.661-23.589-103.812-61.141-137.831zM197.993 120.184c22.343 17.791 38.381 43.164 44.218 72.227-41.564 8.998-77.26 33.746-100.516 67.697-.007.01-.015.008-.023.02a24.448 24.448 0 0 1-4.657 5.361c-.098-2.48-.163-4.969-.163-7.473.001-54.662 23.591-103.813 61.141-137.832z"/><path fill="#333E48" d="M85.471 241.281a164.68 164.68 0 0 1 15.044 18.826c.008.01.016.008.023.02 4.332 6.779 11.925 11.275 20.568 11.275 8.636 0 16.224-4.49 20.558-11.26.007-.012.013-.01.02-.018a164.874 164.874 0 0 1 15.057-18.844h-71.27z"/><path fill="#222" d="M0 192.41c41.564 8.998 77.26 33.746 100.516 67.697.008.01.016.008.023.02 4.332 6.779 11.925 11.275 20.568 11.275V93.338C61.256 93.338 11.351 135.902 0 192.41z" opacity=".2"/><circle cx="179.789" cy="173.137" r="7.463" fill="#333E48"/><circle cx="62.424" cy="173.137" r="7.463" fill="#333E48"/></g><path fill="#FFA21F" d="M274.267 262.395c-33.831 0-61.255 27.426-61.255 61.258 0 11.16 3 21.615 8.215 30.627h-12.059c-8.458 0-15.313 6.857-15.313 15.314s6.856 15.314 15.313 15.314h126.354v-61.256c.001-33.832-27.424-61.257-61.255-61.257zM169.341 258.99c-11.102 0-20.102 9-20.102 20.104v75.186H133.54c-8.457 0-15.313 6.857-15.313 15.314s6.856 15.314 15.313 15.314h55.903V279.094c.001-11.104-8.999-20.104-20.102-20.104z"/></svg>