<svg xmlns="http://www.w3.org/2000/svg" viewBox="0 0 48 48"><path fill="#051626" d="M24 4.8C13.398 4.8 4.8 13.399 4.8 24c0 8.996 6.196 16.523 14.548 18.61a2.817 2.817 0 0 1-.149-.934v-3.281h-2.41c-1.316 0-2.484-.567-3.05-1.618-.63-1.164-.739-2.949-2.298-4.039-.46-.363-.109-.777.426-.722.98.277 1.797.953 2.567 1.957.765 1 1.125 1.23 2.554 1.23.692 0 1.73-.043 2.703-.195.528-1.332 1.434-2.559 2.543-3.14-6.394-.657-9.445-3.837-9.445-8.157 0-1.86.793-3.656 2.137-5.172-.442-1.504-.996-4.57.172-5.738 2.875 0 4.613 1.863 5.03 2.367a14.47 14.47 0 0 1 4.665-.77c1.656 0 3.238.282 4.676.774.41-.5 2.152-2.371 5.035-2.371 1.172 1.168.61 4.25.164 5.75 1.336 1.512 2.125 3.304 2.125 5.16 0 4.316-3.047 7.496-9.43 8.156 1.754.918 3.035 3.492 3.035 5.434v4.375c0 .164-.035.285-.054.43C37.824 39.48 43.199 32.378 43.199 24 43.2 13.398 34.602 4.8 24 4.8zm0 0"/></svg>