<svg xmlns="http://www.w3.org/2000/svg" viewBox="0 0 48 48"><path fill="#051626" d="M44.8 11.098a16.941 16.941 0 0 1-4.902 1.343 8.546 8.546 0 0 0 3.75-4.718 17.097 17.097 0 0 1-5.418 2.07A8.526 8.526 0 0 0 32 7.098a8.536 8.536 0 0 0-8.313 10.476c-7.093-.351-13.382-3.75-17.593-8.918A8.54 8.54 0 0 0 4.94 12.95a8.534 8.534 0 0 0 3.793 7.106 8.502 8.502 0 0 1-3.863-1.07v.109a8.534 8.534 0 0 0 6.848 8.367 8.567 8.567 0 0 1-3.856.148 8.54 8.54 0 0 0 7.973 5.926 17.131 17.131 0 0 1-10.602 3.656c-.687 0-1.367-.039-2.035-.12a24.149 24.149 0 0 0 13.082 3.831c15.7 0 24.282-13.004 24.282-24.28 0-.372-.008-.74-.024-1.106a17.36 17.36 0 0 0 4.262-4.418zm0 0"/></svg>